<svg width="606" height="506" viewBox="0 0 606 506" fill="none" xmlns="http://www.w3.org/2000/svg">
<path d="M567.393 481.99C567.393 494.874 447.273 505.319 299.098 505.319C150.923 505.319 30.8033 494.874 30.8033 481.99C30.8033 469.104 150.923 458.659 299.098 458.659C447.273 458.659 567.393 469.104 567.393 481.99Z" fill="#CCD6F4"/>
<path d="M177.527 183.382C179.744 184.944 180.173 188.257 184.316 189.102C180.18 190.108 179.608 193.302 177.573 195.156C177.499 194.765 177.423 194.376 177.347 193.986L176.888 193.089C176.888 193.089 176.973 193.058 176.973 193.06C176.399 191.19 175.232 189.977 173.235 189.686C173.157 189.336 173.081 188.986 173.003 188.636C175.927 188.085 177.303 186.208 177.532 183.349L177.527 183.382Z" fill="#ECECF0"/>
<path d="M304.35 32.9539C301.247 33.9699 300.26 36.2979 299.146 38.7913C298.672 36.0766 297.482 34.1499 294.758 33.0313C297.152 31.7353 298.768 30.0406 299.146 26.7779C300.132 29.8579 301.492 31.8713 304.35 32.9539Z" fill="#ECECF0"/>
<path d="M225.252 100.474C225.522 99.9035 226.206 99.3155 225.18 98.8035C226.683 97.7035 227.435 96.1409 227.978 93.5462C228.95 96.5435 230.151 98.5795 233.202 99.5675C230.291 100.78 228.915 102.585 228.166 106.089C227.443 103.329 226.694 101.67 225.252 100.474Z" fill="#ECECF0"/>
<path d="M221.694 334.247C222.455 337.721 224.873 339.597 228.682 340.994C223.839 342.445 221.945 345.945 220.671 350.406C220.293 348.401 220.061 346.877 219.182 345.562C218.333 343.631 216.527 343.021 214.766 342.335C214.03 342.051 213.613 341.369 213.619 340.683C213.631 339.287 214.613 340.363 215.119 340.193C218.839 338.934 219.937 335.759 220.678 331.933C221.134 332.971 221.414 333.609 221.694 334.247Z" fill="#ECECF0"/>
<path d="M261.722 150.391C257.336 151.396 256.026 154.943 254.938 158.772C254.053 156.743 254.09 154.422 252.262 152.971C251.9 152.574 251.54 152.174 251.178 151.776C250.584 150.999 249.805 150.566 248.825 150.502L246.86 149.871L246.969 149.686C246.969 149.686 246.793 149.559 246.793 149.556C247.469 149.354 248.144 149.154 248.82 148.954C250.072 148.836 251 148.168 251.76 147.216C252.013 146.874 252.266 146.531 252.52 146.19C252.52 146.19 252.485 146.272 252.484 146.271C252.765 145.782 253.045 145.292 253.326 144.803C253.326 144.803 253.252 144.87 253.25 144.868C253.989 144.22 254.154 143.358 254.162 142.436C254.362 142.019 254.565 141.603 254.846 141.019C255.865 142.838 255.754 145.271 257.87 146.354L257.922 146.406C258.081 148.791 261.608 147.963 261.722 150.391Z" fill="#ECECF0"/>
<path d="M360.833 96.0392C360.462 96.6218 360.026 97.1725 359.738 97.7925C359.451 98.4125 359.314 99.1018 358.945 100.295C357.631 97.4645 357.281 94.4912 354.502 93.1938C354.155 92.6712 353.641 92.5418 353.055 92.5805C353.055 92.5805 353.114 92.6192 353.113 92.6192C353.805 91.9258 350.207 92.1392 352.799 90.9352C355.361 89.7458 357.303 87.9072 357.458 84.8045C358.093 84.6085 358.265 84.1512 358.174 83.5432C358.638 83.5312 359.215 83.4445 359.331 84.0378C360.113 88.0672 363.066 90.1018 366.39 91.8098C364.021 92.5392 362.442 94.3085 360.833 96.0392Z" fill="#ECECF0"/>
<path d="M201.428 293.997C200.827 293.813 200.429 293.461 200.428 292.784C204.848 292.271 206.209 288.889 207.491 284.521C208.855 288.971 210.764 292.169 215.721 293.189C211.168 294.723 208.747 297.145 208.132 301.128C207.248 301.804 207.248 301.804 206.659 300.117C206.153 297.02 204.436 294.957 201.428 293.997Z" fill="#ECECF0"/>
<path d="M358.076 211.174C354.513 212.291 353.729 215.482 352.529 218.814C350.425 215.451 350.094 210.673 344.612 210.489C349.4 209.061 351.592 205.933 352.348 200.653C353.754 205.467 355.386 209.026 360.022 209.774C359.373 210.241 358.725 210.707 358.076 211.174Z" fill="#ECECF0"/>
<path d="M253.384 254.875C252.968 255.843 252.554 256.812 252.01 258.083C251.131 253.839 249.45 250.501 244.474 249.183C246.856 248.185 248.802 247.539 249.804 245.673C251.231 244.304 251.364 242.349 252.138 240.271C253.239 244.429 255.167 247.569 259.644 249.079C256.606 250.472 254.286 251.979 253.384 254.875Z" fill="#ECECF0"/>
<path d="M295.384 230.229C292.096 231.635 290.592 233.655 289.586 237.249C288.646 233.756 287.473 231.484 283.757 230.359C287.408 229.076 288.873 226.976 289.55 224.043C290.46 226.909 291.966 229.043 295.384 230.229Z" fill="#ECECF0"/>
<path d="M348.191 149.242C347.984 149.964 347.411 150.314 346.795 150.616C344.504 151.534 343.954 153.842 342.816 155.736C342.447 155.2 342.126 154.735 341.803 154.27C341.656 151.708 339.62 150.864 337.32 149.664C340.571 148.482 342.342 146.394 342.51 143.17C342.628 143.058 342.722 142.93 342.794 142.782C343.547 145.81 344.719 148.486 348.191 149.242Z" fill="#ECECF0"/>
<path d="M415.214 276.426C416.827 275.165 416.392 272.922 417.662 271.201C418.54 275.493 420.604 278.571 425.235 279.898C421.53 281.39 418.932 283.489 418.228 287.262C417.674 288.773 417.136 288.762 416.834 287.182C416.118 283.45 413.784 281.247 410.114 280.059C412.066 279.018 414.224 278.509 415.214 276.426Z" fill="#ECECF0"/>
<path d="M389.17 318.002C385.513 319.327 384.141 321.455 383.014 324.807C382.039 321.574 380.855 319.226 377.218 318.163C380.697 316.946 382.305 314.863 382.907 310.82C383.999 314.576 385.274 316.899 389.17 318.002Z" fill="#ECECF0"/>
<path d="M226.551 206.477C223.188 207.683 221.774 210.073 220.703 213.507C220.003 209.881 218.555 207.518 214.812 206.481C218.563 205.445 220.075 203.21 220.668 199.643C221.788 202.882 223.192 205.295 226.551 206.477Z" fill="#ECECF0"/>
<path d="M353.713 257.972C356.404 256.702 358.226 255.298 358.696 252.458C359.716 254.81 360.926 256.724 363.772 257.696C361.118 259.026 359.626 260.704 358.832 264.151C357.912 260.78 356.893 258.607 353.713 257.972Z" fill="#ECECF0"/>
<path d="M275.647 341.34C275.647 341.34 275.652 341.353 275.652 341.351C273.053 341.991 271.843 343.945 270.869 347.535C270.141 344.119 269.129 342.097 266.011 341.189C268.607 339.913 270.168 338.345 270.887 335.868C271.701 338.517 273.799 339.815 275.647 341.34Z" fill="#ECECF0"/>
<path d="M301.251 174.796C302.341 177.581 303.427 179.516 306.933 180.368C303.579 181.344 302.304 183.21 301.365 186.03C300.245 183.554 299.46 181.273 295.689 180.606C299.091 179.566 300.371 177.738 301.251 174.796Z" fill="#ECECF0"/>
<path d="M305.605 405.151C304.964 402.893 302.154 402.691 301.305 400.627C304.654 399.989 305.834 397.575 306.345 394.255C307.624 397.087 308.665 399.889 312.624 400.947C309.066 402.199 307.674 404.439 306.661 407.465C306.161 406.367 305.882 405.759 305.605 405.151Z" fill="#ECECF0"/>
<path d="M311.739 304.957C311.539 305.489 311.338 306.021 310.852 307.305C309.81 302.529 308.134 299.001 302.58 297.976C307.898 296.871 309.89 293.784 310.894 289.537C312.044 293.539 314.211 296.513 318.108 297.944C318.047 298.043 317.998 298.155 317.922 298.241C317.843 298.328 317.739 298.391 317.647 298.464C314.383 299.448 312.576 301.763 311.739 304.957Z" fill="#ECECF0"/>
<path d="M426.553 236.027C426.595 232.783 423.553 231.828 421.941 229.811C425.238 229.376 426.11 226.79 427.01 223.794C428.122 226.595 429.251 229.062 432.835 230.16C429.162 231.31 429.241 234.822 426.99 236.494C426.965 236.512 426.817 236.394 426.747 236.319C426.669 236.234 426.617 236.126 426.553 236.027Z" fill="#ECECF0"/>
<path d="M375.598 378.547C374.957 374.555 373.473 372.334 369.908 371.192C373.472 370.14 375.005 367.938 375.593 364.211C376.621 367.68 378.076 370.032 381.534 371.176C378.065 372.479 376.622 374.823 375.598 378.547Z" fill="#ECECF0"/>
<path d="M201.001 165.442C203.203 164.682 202.565 161.843 204.392 160.808C205.413 159.226 206.923 158.4 208.715 158.01C208.631 156.759 207.301 156.884 206.712 156.192C203.36 154.82 202.689 151.555 201.455 147.916C200.696 153.086 198.639 156.4 193.172 157.587C198.211 158.732 200.416 161.364 201.001 165.442Z" fill="#CCD6F4"/>
<path d="M159.477 243.012C159.129 243.809 158.901 244.329 158.674 244.849C158.033 247.144 156.178 248.209 154.01 249.187C157.858 249.693 158.166 253.269 160.041 255.38C160.413 253.405 161.01 251.571 163.01 250.611C163.239 250.424 163.47 250.237 163.699 250.051C164.203 249.845 164.709 249.639 165.213 249.433C165.114 249.107 165.013 248.781 164.913 248.456C161.555 248.359 161.19 245.052 159.477 243.012Z" fill="#CCD6F4"/>
<path d="M275.554 61.5216C276.808 58.4656 278.17 56.0536 281.802 54.7536C277.973 53.7576 276.638 51.3403 275.614 48.0629C274.769 51.4416 273.6 53.9389 270.092 54.8656C273.578 55.6883 274.558 58.3549 275.554 61.5216Z" fill="#CCD6F4"/>
<path d="M221.036 106.246C221.845 103.248 222.925 101.336 225.252 100.474C225.523 99.9043 226.205 99.3163 225.18 98.8029C222.412 97.9523 221.889 95.3256 220.671 92.8563C220.015 96.0483 218.768 98.5349 215.523 99.6923C218.748 100.683 219.595 103.355 221.036 106.246Z" fill="#CCD6F4"/>
<path d="M383.014 324.806C382.04 321.573 380.855 319.225 377.218 318.164C380.695 316.945 382.304 314.862 382.907 310.821C383.998 314.576 385.274 316.898 389.17 318.001C385.512 319.328 384.14 321.454 383.014 324.806ZM358.832 264.15C357.912 260.781 356.892 258.606 353.712 257.973C356.403 256.701 358.227 255.298 358.696 252.457C359.715 254.809 360.926 256.724 363.771 257.697C361.118 259.025 359.626 260.705 358.832 264.15V264.15ZM220.703 213.508C220.003 209.881 218.556 207.517 214.812 206.481C218.563 205.445 220.074 203.21 220.667 199.644C221.788 202.882 223.192 205.296 226.551 206.477C223.187 207.684 221.774 210.073 220.703 213.508ZM301.251 174.796C302.343 177.581 303.427 179.516 306.932 180.368C303.579 181.344 302.303 183.21 301.366 186.03C300.246 183.554 299.459 181.274 295.688 180.608C299.091 179.566 300.371 177.738 301.251 174.796V174.796ZM416.834 287.182C416.118 283.449 413.784 281.248 410.114 280.058C412.066 279.018 414.224 278.509 415.214 276.426C411.398 268.877 406.963 261.809 400.316 256.334C389.787 247.664 377.67 243.281 364.122 242.626C363.295 242.586 362.471 242.501 361.647 242.436C355.288 242.832 348.944 243.112 342.695 244.704C336.06 246.393 329.458 248.161 323.11 250.704C310.782 255.64 298.724 261.424 285.479 263.561C273.566 265.482 262.152 264.892 253.384 254.874C252.97 255.842 252.554 256.81 252.01 258.082C251.13 253.838 249.45 250.501 244.474 249.184C246.855 248.185 248.802 247.538 249.804 245.673C247.563 230.908 257.682 214.91 271.746 210.984C285.388 207.174 298.378 218.985 295.856 232.905C294.803 238.724 290.536 241.096 285.052 238.869C283.063 238.06 281.22 236.981 279.551 235.606C278.054 234.372 276.511 233.193 274.507 231.609C274.779 234.662 275.811 236.673 276.695 238.717C281.18 249.073 287.827 253.34 299.078 252.664C309.32 252.046 317.838 247.434 325.33 240.636C335.23 231.65 339.875 220.289 339.152 207.182C338.651 198.089 335.126 189.634 330.102 181.933C321.028 168.026 308.746 158.152 293.106 152.497C282.787 149.681 272.315 149.14 261.722 150.39C257.335 151.397 256.026 154.942 254.938 158.773C254.052 156.744 254.09 154.422 252.264 152.969C251.598 153.102 250.931 153.236 250.264 153.368C247.459 154.554 244.652 155.74 241.846 156.925C241.084 157.352 240.323 157.777 239.562 158.202C237.736 159.257 235.908 160.312 234.083 161.365L233.979 161.305C233.704 161.901 233.303 162.285 232.583 162.14L232.592 162.206C232.338 163.316 231.388 163.664 230.519 164.098C229.211 165.242 227.903 166.386 226.596 167.529C223.787 170.668 220.976 173.805 218.166 176.942C217.966 177.173 217.767 177.402 217.567 177.633C214.939 182.436 212.312 187.238 209.684 192.04C209.7 192.244 209.638 192.42 209.499 192.569C208.827 194.785 208.158 197.002 206.946 199.005L206.588 200.424C206.364 201.918 206.043 203.384 205.242 204.696C205.152 205.181 205.063 205.666 204.972 206.152L204.443 208.28C204.291 208.769 204.139 209.257 203.987 209.746C203.21 215.12 202.138 220.469 201.72 225.869C200.943 235.917 202.076 245.797 205.435 255.36L205.995 256.833L206.182 257.069L205.987 257.261C205.779 257.405 205.572 257.548 205.366 257.69C205.603 259.429 207.979 259.34 208.242 261.056C210.608 264.4 212.976 267.742 215.343 271.086C216.798 272.269 218.29 273.41 219.704 274.64C233.38 286.533 249.012 292.616 267.34 290.721C269.403 289.946 271.751 290.658 273.742 289.5L275.25 289.173C275.727 289.109 276.204 289.046 276.682 288.982C279.044 288.21 281.406 287.44 283.768 286.668C284.26 286.472 284.752 286.276 285.243 286.08C285.439 285.946 285.654 285.87 285.89 285.849C296.1 281.665 306.28 277.402 317.63 277.51C334.176 277.668 347.859 290.297 349.307 306.813C350.363 318.865 341.244 329.188 329.15 329.821C321.316 330.232 314.096 328.098 307.167 324.813C300.736 321.765 294.434 318.448 288.075 315.249C287.822 315.062 287.57 314.877 287.316 314.69L287.338 314.745C286.371 314.637 285.616 314.22 285.208 313.294C283.39 313.334 281.759 312.757 280.254 311.773C279.535 311.536 278.818 311.298 278.098 311.061C277.738 310.853 277.378 310.645 277.018 310.438C276.42 310.377 275.823 310.317 275.226 310.256L274.895 310.304L274.567 310.24C272.988 310.369 271.682 309.501 270.255 309.07C268.951 308.992 267.64 308.972 266.344 308.821C255.598 307.565 245.886 310.306 236.916 316.204C230.036 320.726 225.547 327.204 221.694 334.248C222.455 337.722 224.872 339.597 228.682 340.994C223.839 342.445 221.946 345.945 220.671 350.406C220.292 348.401 220.062 346.877 219.182 345.562C217.998 354.398 219.342 362.828 223.411 370.77C228.424 380.549 236.106 386.352 247.392 386.97C253.871 387.326 260.14 386.17 266.431 384.982C273.411 383.662 280.335 381.944 287.514 382.04C296.506 380.92 305.219 381.774 313.646 385.348C327.871 391.384 333.175 404.886 326.85 419.022C324.41 424.478 320.611 429.073 317.642 434.189C317.851 434.392 318.062 434.597 318.27 434.801C340.799 423.004 345.244 398.237 335.103 379.213C330.718 370.986 322.958 367.714 314.576 365.414C305.786 363.001 296.602 362.232 287.992 359.044C284.747 357.841 281.623 356.466 279.095 354.025C275.434 350.489 273.232 346.544 275.654 341.349C273.054 341.992 271.842 343.945 270.87 347.536C270.142 344.118 269.13 342.098 266.011 341.189C268.606 339.913 270.168 338.344 270.887 335.869C271.702 338.517 273.798 339.816 275.647 341.34C281.126 334.82 288.098 333.846 296.167 334.953C306.25 336.337 314.34 341.397 322.488 346.88C328.114 350.665 333.418 354.961 339.647 357.889C344.434 360.137 349.427 361.406 354.538 362.445C367.339 362.774 379.575 360.246 391.312 355.181C403.952 349.725 412.468 340.482 416.548 327.326C420.636 314.144 421.61 300.781 418.228 287.262C417.674 288.773 417.136 288.762 416.834 287.182" fill="#CCD6F4"/>
<path d="M285.201 313.284C285.203 313.288 285.207 313.291 285.208 313.295C285.212 313.295 285.215 313.296 285.219 313.296L285.201 313.284Z" fill="#CCD6F4"/>
<path d="M347.395 187.532C347.378 187.499 347.362 187.465 347.343 187.432C347.347 187.477 347.351 187.523 347.355 187.568L347.395 187.532Z" fill="#CCD6F4"/>
<path d="M316.304 137.399C321.418 145.562 331.55 151.986 342.51 143.168C342.628 143.058 342.722 142.928 342.794 142.783C345.776 139.266 348.079 135.448 348.152 130.65C348.246 124.628 344.967 121.84 339.07 123.074C336.76 123.556 334.52 124.371 331.924 125.128C332.28 121.682 333.954 119.314 336.914 118.004C343.326 115.166 352.039 118.276 355.392 124.464C359.462 131.971 358.712 138.06 352.9 144.371C351.371 146.032 349.763 147.62 348.191 149.242C347.984 149.964 347.411 150.314 346.792 150.619C345.559 152.946 344.327 155.272 343.094 157.599C342.883 158.398 342.672 159.196 342.462 159.995L342.522 160.179C342.522 160.179 342.348 160.307 342.348 160.306C340.196 170.055 342.887 178.907 347.344 187.431C347.155 185.114 346.967 182.795 346.776 180.478C346.038 171.55 346.087 162.788 352.692 155.635C356.271 151.76 360.763 149.028 365.111 146.131C374.208 140.071 379.663 132.015 378.016 120.668C376.427 109.706 371.276 100.956 360.832 96.0392C360.463 96.6218 360.027 97.1725 359.739 97.7925C359.452 98.4125 359.314 99.1018 358.946 100.295C357.632 97.4645 357.282 94.4912 354.502 93.1925C354.02 92.9885 353.538 92.7858 353.055 92.5805L353.114 92.6192C348.302 92.0138 343.496 91.2738 338.62 91.7952C332.272 92.4725 326.39 94.3685 321.542 98.6938C313.974 105.444 311.61 114.248 311.778 124.007C312.742 128.655 313.726 133.283 316.304 137.399Z" fill="#CCD6F4"/>
<path d="M206.658 300.117C204.332 298.576 202.418 296.681 201.428 293.997C200.826 293.813 200.429 293.461 200.429 292.784C199.668 290.637 198.701 288.545 198.668 286.203C198.448 285.788 198.308 285.108 197.99 285.011C197.249 284.784 197.528 285.555 197.472 285.88C197.06 288.219 196.778 290.593 195.188 292.524C194.869 293.52 194.781 294.689 194.186 295.473C192.957 297.089 192.381 299.671 189.482 299.245C189.388 299.627 189.293 300.008 189.201 300.391C187.245 302.381 184.238 302.243 181.632 303.819C190.909 305.089 196.664 311.951 197.654 322.347C200.152 313.357 204.07 305.628 214.653 303.583C212.105 302.624 210.118 301.875 208.132 301.128C207.248 301.805 207.248 301.805 206.658 300.117Z" fill="#CCD6F4"/>
<path d="M271.436 118.028C278.428 119.994 282.06 124.089 283.032 130.478C282.842 130.794 282.652 131.11 282.461 131.426C283.913 132.752 284.224 132.114 284.549 130.48C285.39 126.265 287.552 122.801 291.172 120.368C292.626 119.389 294.741 119.593 295.857 117.753C288.857 115.953 285.497 111.058 284.277 104.31C284.213 103.958 284.652 102.662 283.338 103.334C283.272 103.808 283.205 104.281 283.138 104.754C282.546 111.644 278.944 116.08 271.436 118.028Z" fill="#CCD6F4"/>
<path d="M432.284 177.58C432.183 177.125 432.081 176.669 431.979 176.214C431.756 175.508 431.536 174.801 431.316 174.094C430.871 172.664 430.424 171.234 429.979 169.805C429.781 169.305 429.585 168.804 429.389 168.304C429.157 167.833 428.925 167.362 428.693 166.892C427.255 164.598 425.815 162.305 424.376 160.01C421.457 157.217 418.604 154.38 414.907 152.528C401.387 145.756 381.264 150.465 371.032 162.585C364.428 170.408 362.855 179.185 364.769 188.949C366.008 195.269 367.093 201.72 365.511 208.057C362.88 218.593 355.8 226.03 347.505 232.625C360.196 229.321 372.735 225.656 382.988 216.772C382.988 216.773 382.991 216.796 382.991 216.796C383.399 216.305 383.808 215.816 384.215 215.326C384.757 214.637 385.303 213.948 385.845 213.26C387.839 209.709 389.02 205.901 389.464 201.86C389.463 201.38 389.461 200.9 389.46 200.42C389.443 199.47 389.425 198.522 389.409 197.573C388.684 193.693 388.896 189.876 390.151 186.125C390.549 185.169 390.949 184.213 391.347 183.257C392.512 180.509 394.183 178.27 397.239 177.434C397.237 177.433 397.249 177.489 397.249 177.489C397.784 176.716 398.544 176.536 399.423 176.666C399.423 176.665 399.368 176.774 399.368 176.774C399.636 176.601 399.905 176.429 400.173 176.256C401.365 175.942 402.564 175.878 403.771 176.162C404.561 176.125 405.353 176.082 405.969 176.726C406.471 176.984 406.972 177.242 407.473 177.5C411.224 180.112 411.873 183.23 409.579 187.598C409.463 188.556 408.991 189.276 408.148 189.75C405.619 193.804 402.381 193.336 398.884 191.201C398.891 191.648 398.897 192.094 398.904 192.542C399.357 193.217 399.349 193.96 399.224 194.72C399.559 196.121 399.893 197.524 400.228 198.925C401.097 200.14 401.967 201.354 402.836 202.569C403.008 202.632 403.119 202.752 403.165 202.929C404.361 203.673 405.557 204.416 406.755 205.16C409.693 206.074 412.685 206.644 415.779 206.558C416.296 206.473 416.813 206.388 417.332 206.304L422.976 204.488C423.237 204.328 423.5 204.168 423.761 204.008C425.895 202.301 428.007 200.572 429.603 198.314C429.916 197.773 430.228 197.23 430.54 196.688C432.671 191.71 433.18 186.492 432.859 181.149C432.356 180.009 432.224 178.809 432.284 177.58Z" fill="#CCD6F4"/>
<path d="M397.315 133.906C399.789 128.024 400.439 127.278 405.239 124.726C400.705 123.544 398.616 120.316 397.348 116.192C396.705 120.822 394.401 123.816 389.084 124.962C394.464 126.018 396.365 129.357 397.315 133.906Z" fill="#CCD6F4"/>
<path d="M347.395 187.533L347.355 187.567L347.716 188.061C347.609 187.885 347.503 187.709 347.395 187.533Z" fill="#CCD6F4"/>
<path d="M301.305 400.628C300.544 399.038 299.785 397.448 299.024 395.85C298.457 400.016 296.485 403.253 291.386 404.868C296.694 406.169 298.316 409.566 299.218 414.666C300.089 409.837 302.065 406.896 305.605 405.152C304.964 402.892 302.156 402.692 301.305 400.628Z" fill="#CCD6F4"/>
<path d="M323.723 303.388C320.839 302.207 318.836 300.794 317.647 298.464C314.384 299.448 312.576 301.762 311.74 304.958C314.662 306.282 314.982 309.364 316.394 312.266C317.391 307.971 319.674 305.178 323.723 303.388Z" fill="#CCD6F4"/>
<path d="M421.94 229.811C419.487 226.731 418.046 223.259 417.851 219.301C417.852 219.299 417.916 219.206 417.916 219.206C417.55 219.305 417.183 219.403 416.818 219.506C416.894 224.887 415.318 229.433 410.37 232.275C409.403 232.733 408.436 233.191 407.468 233.649C406.712 233.945 405.955 234.239 404.81 234.685C406.887 235.399 408.631 235.433 409.867 236.697C415.28 239.185 416.11 244.506 417.594 250.011C418.89 243.751 420.944 238.707 426.552 236.027C426.595 232.783 423.552 231.827 421.94 229.811Z" fill="#CCD6F4"/>
<path d="M455.02 255.073C454.613 258.72 452.752 260.282 449.992 261.804C453.249 262.836 454.26 265.312 455.49 268.061C456.624 265.16 457.678 262.781 461.198 261.828C457.968 260.38 456.577 258.2 455.02 255.073Z" fill="#CCD6F4"/>
<path d="M442.558 170.52C443.298 174.856 445.081 178.42 449.582 180.031C449.435 181.335 447.918 181.076 447.323 181.898C445.851 182.652 444.717 183.712 444.21 185.34C443.226 186.459 443.227 187.96 442.571 189.599C441.334 185.391 440.174 181.346 435.059 180.919C435.033 180.636 435.009 180.352 434.985 180.068C435.85 179.912 436.819 180.01 437.362 179.076C437.602 178.854 437.842 178.631 438.083 178.408C439.545 178.4 440.207 177.579 440.323 176.204C441.655 175.088 441.938 173.599 441.833 171.971C442.509 171.704 442.463 171.078 442.558 170.52" fill="#ECECF0"/>
<path d="M19.9032 259.616C24.4165 252.813 30.3099 247.169 35.5579 240.985C42.3272 233.007 49.2779 225.18 56.0099 217.171C57.9659 214.841 59.5205 214.16 62.0979 216.345C87.4805 237.876 112.915 259.343 138.371 280.788C139.883 282.063 140.667 283.348 139.906 285.284C138.078 290.42 133.814 293.759 130.438 297.681C122.083 307.384 113.805 317.16 105.265 326.703C104.207 327.885 103.329 329.305 101.527 329.489C99.7645 329.044 98.9019 327.371 97.4405 326.511C73.7405 306.749 50.3485 286.623 26.6472 266.864C24.1285 264.765 21.2099 262.901 19.9032 259.616Z" fill="#ACC2F6"/>
<path d="M19.9032 259.616C30.5646 268.539 41.2619 277.421 51.8792 286.395C67.3792 299.496 82.8232 312.664 98.2912 325.804C99.2939 327.408 98.2859 328.625 97.3792 329.713C94.8646 332.731 92.7112 336.075 89.9032 338.815C85.5646 343.047 81.8872 347.604 80.6659 353.727C72.4219 347.861 65.0232 340.989 57.3659 334.412C51.4392 329.321 45.2379 324.549 39.3579 319.38C31.5272 312.496 23.4566 305.884 15.4752 299.171C12.0419 296.283 8.4979 293.519 5.1419 290.543C-0.37277 285.653 -0.718104 282.212 4.34856 276.933C9.0499 272.037 13.0672 266.593 17.5712 261.553C18.2366 260.808 19.1206 260.256 19.9032 259.616Z" fill="#32449F"/>
<path d="M101.525 329.028C113.385 315.338 125.238 301.645 137.116 287.97C137.96 287 138.972 286.176 139.906 285.284C142.848 287.813 145.788 290.342 148.729 292.872C149.722 295.164 147.85 296.36 146.71 297.673C135.269 310.861 123.818 324.04 112.393 337.238C110.326 338.993 109.04 341.556 106.573 342.9C105.85 343.106 105.074 343.142 104.456 342.752C102.21 341.334 100.57 341.744 98.8663 343.852C97.2076 345.905 96.2263 347.621 98.4516 349.845C99.0703 350.464 99.1316 351.428 98.809 352.328C98.2116 353.692 97.201 354.736 96.1383 355.721C92.697 358.908 89.5596 358.941 86.165 355.856C82.7303 352.734 82.285 349.482 85.121 345.933C89.3716 340.614 94.0236 335.634 98.537 330.54C99.321 329.654 100.237 328.953 101.525 329.028Z" fill="#F7F7DF"/>
<path d="M111.478 336.583C121.801 324.595 132.137 312.617 142.437 300.61C144.599 298.086 146.634 295.454 148.729 292.871C149.909 292.407 151.263 291.442 152.174 293.011C152.978 294.397 151.785 295.425 150.934 296.402C138.671 310.471 126.406 324.539 114.142 338.607C112.358 339.111 111.65 338.201 111.478 336.583Z" fill="#ACC2F6"/>
<path d="M101.525 329.028C96.4116 334.952 91.2783 340.861 86.1903 346.808C83.2556 350.236 83.5543 351.802 87.2129 355.133C90.1143 357.776 92.7089 358.096 95.3223 354.816C96.3116 353.572 97.4689 352.462 98.5503 351.29C100.258 351.06 101.398 351.512 101.23 353.528C100.024 354.973 98.9103 356.512 97.5916 357.846C93.4849 362.004 89.8116 362.1 85.4143 358.214C83.7836 356.773 82.2463 355.225 80.6663 353.726C78.9516 348.332 82.5089 344.92 85.5849 341.582C90.1823 336.596 94.6489 331.544 98.2903 325.804C99.7863 326.458 100.818 327.581 101.525 329.028Z" fill="#7A86D2"/>
<path d="M101.231 353.527C100.651 352.405 99.6413 351.801 98.5493 351.291C97.94 350.682 97.4253 349.909 96.7027 349.497C94.2427 348.085 94.2867 346.594 96.332 344.867C96.66 344.591 96.98 344.258 97.1813 343.885C99.5533 339.489 102.501 338.875 106.12 342.482C107.62 342.675 108.979 343.045 109.124 344.913C113.097 347.251 112.169 350.885 111.637 354.417C111.361 356.257 111.108 358.101 110.763 360.506C107.347 358.006 104.288 355.767 101.231 353.527Z" fill="#FE3152"/>
<path d="M109.124 344.913C108.123 344.102 107.123 343.292 106.121 342.482C107.907 340.516 109.693 338.55 111.48 336.584C112.367 337.257 113.256 337.932 114.144 338.606C112.469 340.709 110.796 342.81 109.124 344.913Z" fill="#7A86D2"/>
<path d="M125.916 121.261C122.993 121.765 121.283 124.025 120.669 126.389C119.315 131.604 118.261 136.94 118.255 142.395C120.256 140.991 122.273 139.604 123.428 137.337C126.305 138.849 129.28 139.168 132.387 137.972C133.348 132.508 134.308 127.044 135.271 121.579C132.161 121.181 129.093 119.627 125.916 121.261Z" fill="#32449F"/>
<path d="M112.817 203.668C110.407 204.188 109.167 206.054 107.928 207.919C106.377 213.091 105.456 218.364 105.373 223.774C106.521 221.198 108.751 219.88 111.172 218.784C114.017 218.134 116.747 219.147 119.529 219.374C120.336 214.182 121.143 208.988 121.949 203.795C118.913 203.186 115.881 202.263 112.817 203.668Z" fill="#32449F"/>
<path d="M122.625 142.735C120.334 143.538 118.653 145.033 117.546 147.186C116.119 151.73 115.33 156.379 115.243 161.145C116.587 158.366 118.799 156.649 121.746 155.829C124.345 155.679 126.901 155.958 129.417 156.615C130.139 152.058 130.861 147.501 131.583 142.943C128.606 142.469 125.639 141.582 122.625 142.735Z" fill="#32449F"/>
<path d="M135.27 121.579C157.949 125.15 180.628 128.732 203.312 132.27C205.61 132.628 206.249 133.766 205.893 135.982C200.79 167.776 195.73 199.579 190.66 231.379C189.48 231.806 188.308 231.53 187.134 231.343C166.084 227.991 145.028 224.671 123.978 221.312C122.326 221.05 120.598 220.942 119.308 219.64C118.645 218.675 118.61 217.576 118.774 216.494C119.442 212.091 119.913 207.655 121.001 203.324C121.982 194.351 123.665 185.483 125.068 176.574C126.13 169.82 126.937 163.022 128.453 156.344C128.914 151.792 129.548 147.267 130.616 142.812C130.692 141.115 130.909 139.44 131.42 137.814C131.717 133.404 132.629 129.086 133.352 124.74C133.566 123.447 134.08 122.298 135.27 121.579Z" fill="#646CCE"/>
<path d="M129.417 156.616C118.203 222.055 127.877 197.057 107.659 207.056C110.499 190.707 111.674 174.991 116.079 158.547C118.553 154.615 126.41 153.047 129.417 156.616Z" fill="#CCD6F4"/>
<path d="M119.53 219.374C141.949 222.941 164.37 226.507 186.789 230.079C188.147 230.295 189.581 230.317 190.659 231.378C190.557 232.115 190.454 232.853 190.351 233.59C189.438 234.897 188.163 234.926 186.787 234.601C163.187 230.875 139.593 227.123 115.998 223.371C114.106 223.07 112.247 222.689 110.742 224.333C110.225 225.165 109.551 225.902 109.201 226.849C107.993 230.121 109.774 233.233 113.178 233.818C114.339 234.018 115.551 234.033 116.614 234.642C117.794 235.986 119.218 235.146 120.561 235.069C122.074 235.157 123.555 235.41 125.013 235.802C126.267 236.054 126.879 238.251 128.642 236.993C144.941 239.315 161.154 242.119 177.411 244.601C178.954 244.593 180.445 245.067 181.975 245.179C182.989 245.255 184.106 245.658 184.919 244.618C185.146 244.43 185.406 244.306 185.693 244.242C187.101 244.871 187.395 246.343 188.133 247.481C188.083 249.497 187.225 250.163 185.114 249.823C160.594 245.878 136.054 242.057 111.537 238.094C105.237 237.075 102.559 230.598 105.371 223.773C105.67 219.955 108.733 219.014 111.561 217.818C114.395 217.422 117.189 217.247 119.53 219.374Z" fill="#877AF3"/>
<path d="M118.255 142.395C120.422 137.221 126.109 136.316 132.386 137.972C132.298 141.228 131.457 142.397 130.617 142.812C129.129 143.547 127.633 141.927 125.198 142.061C122.882 142.188 121.034 143.832 119.729 145.421C118.961 146.111 118.025 146.812 117.579 146.54C116.953 146.156 117.586 143.995 118.255 142.395Z" fill="#CCD6F4"/>
<path d="M187.431 233.881C188.404 233.784 189.377 233.688 190.351 233.59C189.612 238.22 188.872 242.849 188.133 247.48C186.664 247.024 185.388 246.417 185.803 244.492C185.097 244.126 185.025 243.472 185.019 242.786C185.047 242.141 185.077 241.493 185.245 240.864C185.328 240.242 185.385 239.617 185.544 239.006C185.608 238.386 185.697 237.769 185.839 237.16C185.905 236.689 185.929 236.212 186.081 235.756C186.26 234.936 186.559 234.201 187.431 233.881Z" fill="#32449F"/>
<path d="M141.014 182.665C142.024 176.287 143.008 169.906 144.057 163.534C144.64 160.002 145.854 159.094 149.332 159.635C159.737 161.254 170.138 162.893 180.53 164.589C184.84 165.291 185.68 166.503 184.99 170.919C183.156 182.698 181.274 194.47 179.385 206.241C179.197 207.411 178.83 208.554 178.542 209.71C178.074 211.581 176.841 212.307 174.988 212.015C163.508 210.201 152.028 208.385 140.552 206.546C137.933 206.126 137.577 204.311 137.932 202.091C138.968 195.617 139.989 189.141 141.014 182.665Z" fill="#CCD6F4"/>
<path d="M167.553 148.585C161.664 147.65 155.777 146.697 149.883 145.793C148.144 145.526 146.579 144.924 146.883 142.898C147.171 140.969 148.711 140.585 150.537 140.88C162.312 142.776 174.092 144.64 185.875 146.484C187.664 146.765 188.983 147.369 188.604 149.513C188.209 151.745 186.597 151.609 184.927 151.342C179.136 150.418 173.344 149.504 167.553 148.585Z" fill="#CCD6F4"/>
<path d="M118.342 227.104C121.653 226.324 124.757 227.668 127.945 228.092C129.21 228.26 128.825 229.444 128.725 230.279C128.427 232.728 128.077 235.172 127.747 237.618C125.983 239.775 126.19 236.527 125.158 236.674C123.537 235.34 121.814 234.64 119.787 235.804C118.865 235.392 117.458 239.007 116.911 235.46C116.611 234.888 116.266 234.33 116.358 233.64C116.387 233.004 116.431 232.371 116.594 231.751C116.669 231.131 116.739 230.507 116.895 229.898C116.967 229.268 117.075 228.647 117.329 228.058C117.543 227.608 117.846 227.254 118.342 227.104Z" fill="#FE3152"/>
<path d="M119.788 235.805C122.809 233.5 122.809 233.5 125.159 236.673C123.368 236.385 121.579 236.094 119.788 235.805Z" fill="#E4EAE6"/>
<path d="M187.431 233.88C163.123 230.003 138.815 226.12 114.504 222.259C112.404 221.926 110.545 222.334 109.469 224.446H109.471C105.975 229.33 107.856 233.976 113.715 234.931C114.781 235.104 115.847 235.283 116.912 235.459C117.005 234.826 117.1 234.192 117.193 233.559C117.292 232.972 117.392 232.387 117.491 231.8L117.751 230.02C117.849 229.431 117.948 228.839 118.047 228.248C118.097 228.054 118.148 227.859 118.197 227.666C120.003 228.022 121.843 228.106 123.651 228.419C127.537 229.095 127.513 229.114 127.104 232.96C126.937 234.526 126.036 236.279 127.748 237.618C128.928 237.787 130.109 237.943 131.285 238.127C146.884 240.57 162.483 243.016 178.081 245.463C179.839 245.768 181.609 246.016 183.351 246.395C184.949 246.743 185.575 246.092 185.541 244.568L185.803 244.491C185.843 243.88 185.881 243.272 185.923 242.663C186.007 242.058 186.092 241.451 186.176 240.844C186.277 240.27 186.377 239.698 186.479 239.124C186.567 238.518 186.655 237.912 186.743 237.307C186.793 236.914 186.843 236.522 186.893 236.13C187.072 235.38 187.252 234.63 187.431 233.88Z" fill="#F7F7DF"/>
<path d="M538.025 468.871C537.669 467.641 537.313 466.41 536.957 465.181C535.319 465.917 533.652 465.49 532.001 465.313C532.569 465.334 533.136 465.353 533.705 465.375C534.833 465.419 535.881 465.537 536.78 464.714C535.592 462.107 534.109 459.59 533.281 456.874C531.9 452.341 527.661 449.785 525.949 445.485C524.904 442.859 523.752 440.149 521.341 438.333C520.303 437.498 519.107 437.141 517.788 436.998C502.915 435.374 488.236 432.535 473.52 429.929C465.397 428.551 457.364 426.717 449.277 425.155C432.981 422.007 416.608 419.689 399.972 419.653C396.067 419.719 392.161 419.677 388.251 419.689C383.959 419.594 379.753 420.383 375.537 420.973C356.637 423.618 339.08 429.625 324.311 442.177C320.581 445.345 316.536 448.379 314.487 453.122C314.513 454.197 315.305 454.677 316.103 455.069C322.68 458.314 327.183 463.575 330.608 469.899C331.22 471.031 331.784 472.231 333.231 472.53C335.28 472.886 337.273 472.529 339.249 472.025C354.807 467.981 370.721 466.63 386.704 466.285C398.004 466.041 409.297 467.065 420.545 468.183C434.941 469.618 449.348 470.934 463.756 472.218C466.244 472.222 468.684 472.822 471.177 472.823C492.349 472.833 513.521 472.835 534.692 472.809C536.061 472.807 537.512 472.962 538.623 471.839C538.423 470.849 538.224 469.859 538.025 468.871Z" fill="#CEB297"/>
<path d="M276.579 422.478C264.196 416.581 250.819 415.167 237.411 414.395C224.99 413.678 212.607 414.774 200.27 416.433C178.362 419.379 156.934 424.715 135.33 429.179C121.407 432.059 107.419 434.566 93.3856 436.826C91.511 437.127 89.6443 437.265 88.015 438.347C86.4056 439.655 85.911 441.657 84.915 443.343C83.359 445.986 82.423 449.437 80.163 451.099C77.6283 452.963 76.811 455.193 75.8923 457.735C74.615 461.267 73.2536 464.767 71.9283 468.282C72.7483 469.07 73.7883 468.831 74.7563 468.858C75.1536 468.87 75.5523 468.873 75.951 468.881C75.2443 468.881 74.5376 468.883 73.831 468.878C72.9403 468.871 72.031 468.833 71.2936 469.485L70.6976 471.825C72.0896 473.155 73.8576 472.818 75.4976 472.802C91.935 472.649 108.383 473.326 124.81 472.202C133.891 471.462 142.991 471.01 152.08 470.451C161.684 469.862 171.272 469.071 180.866 468.381C194.123 467.426 207.384 466.653 220.666 466.227C228.911 465.963 237.112 466.803 245.328 467.358C254.274 467.962 263.088 469.214 271.659 471.943C272.66 472.131 273.647 472.454 274.687 472.194C275.984 471.595 276.412 470.321 277.003 469.19C282.023 459.571 289.824 454.023 300.684 452.853C302.195 452.689 303.91 452.794 304.891 451.193C304.892 449.742 304.243 448.502 303.568 447.285C297.323 436.026 288.11 427.969 276.579 422.478Z" fill="#CEB297"/>
<path d="M409.712 348.302C418.386 342.169 427.655 337.032 437.086 332.204C445.186 328.056 453.447 324.224 461.638 320.253C464.663 319.112 467.688 317.973 471.186 316.656C469.288 323.454 467.511 329.796 465.754 336.144C465.156 338.301 463.152 337.796 461.782 338.036C452.315 339.692 442.911 341.637 433.563 343.852C425.56 345.749 417.643 347.957 409.882 350.701C409.059 350.993 408.266 351.521 407.312 351.27C407.04 349.413 409.278 349.588 409.712 348.302Z" fill="#BFA38C"/>
<path d="M409.712 348.302C409.871 350.066 407.486 349.774 407.312 351.27C406.004 352.076 404.676 352.837 403.134 353.108C404.851 350.854 407.435 349.788 409.712 348.302Z" fill="#92806C"/>
<path d="M332.678 472.009C334.71 471.893 336.762 471.964 338.741 471.351C373.655 470.283 408.578 471.152 443.497 470.892C448.749 470.853 453.997 471.072 459.235 471.519C460.602 471.636 462.009 471.76 463.374 471.364C486.765 472.501 510.171 471.651 533.569 471.908C535.253 471.927 536.938 471.864 538.622 471.839C541.877 472.296 543.475 473.753 543.297 476.1C543.119 478.464 541.378 479.687 538.062 479.688C473.057 479.695 408.053 479.691 343.047 479.713C341.805 479.715 340.445 479.267 339.331 480.267C337.062 480.659 334.778 480.621 332.537 480.201C330.718 479.859 329.035 479.167 329.226 476.783C329.41 476.163 329.726 475.692 330.459 476.069C332.867 477.309 332.955 476.035 332.517 474.189C332.338 473.439 332.018 472.692 332.678 472.009Z" fill="#646CCE"/>
<path d="M70.6975 471.824C87.1388 471.746 103.585 472.462 120.019 471.378C121.693 471.267 123.381 471.344 125.063 471.335C129.716 471.954 134.365 471.235 139.009 471.144C143.271 471.063 147.541 470.908 151.804 470.903C189.459 470.854 227.113 470.895 264.767 470.832C267.345 470.827 269.847 471.586 272.423 471.296C273.176 471.512 273.931 471.728 274.684 471.944C275.195 472.566 274.889 473.228 274.78 473.88C274.641 474.715 274.144 475.778 275.179 476.206C276.307 476.674 276.521 475.454 276.955 474.762C277.489 473.911 277.661 472.62 279.175 472.991C280.676 474.02 281.14 475.462 280.573 477.122C279.909 479.07 278.447 480.159 276.388 480.356C273.455 480.639 270.471 480.19 267.568 480.951C266.877 479.15 265.313 479.708 264.023 479.707C214.896 479.691 165.768 479.694 116.641 479.694C101.624 479.694 86.6081 479.691 71.5908 479.695C69.9935 479.695 68.3815 479.799 67.1975 478.398C66.2148 477.235 65.9495 475.944 66.4641 474.51C67.1775 472.52 68.8028 471.958 70.6975 471.824Z" fill="#646CCE"/>
<path d="M313.606 453.262C314.01 453.341 314.413 453.417 314.818 453.495C323.28 457.246 328.616 464.013 332.678 472.01C332.846 472.662 332.941 473.346 333.198 473.961C333.722 475.218 334.014 476.505 332.712 477.355C331.118 478.397 330.537 476.854 329.765 475.929C326.628 466.605 321.198 459.07 311.366 456.485C297.682 452.887 283.97 458.986 278.498 473.025C278.081 474.013 277.685 475.009 277.244 475.983C276.777 477.013 276.15 478.014 274.83 477.459C273.673 476.974 273.438 475.893 273.776 474.73C274.048 473.791 274.38 472.871 274.685 471.945C278.04 464.634 282.698 458.538 290.154 454.926C294.716 452.717 299.562 451.969 304.536 451.697C305.266 452.462 306.166 452.085 307.014 452.066C308.242 452.165 309.469 452.263 310.698 452.363C311.669 452.665 312.637 452.962 313.606 453.262Z" fill="#FE3152"/>
<path d="M387.624 420.495C391.804 419.571 395.985 419.579 400.165 420.492C395.985 420.494 391.804 420.495 387.624 420.495Z" fill="#CAC8B3"/>
<path d="M235.375 457.558C235.335 454.587 235.294 451.616 235.254 448.646C234.695 445.678 235.549 442.666 234.987 439.696C234.953 439.25 234.915 438.802 234.879 438.354C234.341 437.77 234.311 437.163 234.797 436.532C234.814 432.824 234.83 429.118 234.847 425.41C235.09 425.152 235.387 425.036 235.739 425.055C244.998 424.958 254.098 426.138 263.047 428.492C264.193 428.795 265.382 428.99 266.353 429.756C266.619 430.015 266.69 430.319 266.57 430.67C266.343 442.314 266.118 453.958 265.879 466.26C263.723 464.676 262.087 463.474 260.451 462.272C259.173 461.868 258.027 461.22 256.978 460.391C256.647 460.178 256.349 459.923 256.041 459.683C249.361 454.478 251.881 454.748 244.722 458.98C244.053 459.484 243.23 459.6 242.469 459.871C240.035 460.422 238.289 462.298 235.851 463.343C235.109 462.068 235.69 460.651 235.342 459.406C234.954 458.783 234.911 458.166 235.375 457.558Z" fill="#FE3152"/>
<path d="M333.876 479.612C331.685 479.291 329.285 479.22 329.765 475.927C330.402 475.074 330.078 474.179 329.724 473.39C327.558 468.57 324.962 464.042 320.806 460.602C315.508 456.216 309.466 454.531 302.592 454.895C292.053 455.454 284.452 460.452 279.246 469.402C278.629 470.464 277.886 471.642 278.498 473.026C279.802 474.099 280.681 475.416 279.872 477.095C279.06 478.784 277.704 479.767 275.644 479.64C273.692 479.519 271.726 479.628 269.766 479.611C268.74 479.602 267.764 479.62 267.569 480.951C268.222 483.884 270.318 484.92 273.04 484.923C293.292 484.947 313.544 484.954 333.796 484.916C336.828 484.91 338.88 483.475 339.33 480.267C337.641 478.98 335.688 479.879 333.876 479.612Z" fill="#32449F"/>
<path d="M434.02 468.583C413.558 466.519 393.097 464.437 372.488 465.987C361.096 466.843 349.773 468.202 338.741 471.35C339.562 472.193 340.616 471.847 341.569 471.847C381.022 471.865 420.477 471.867 459.932 471.845C461.081 471.845 462.329 472.231 463.374 471.363C453.589 470.441 443.798 469.57 434.02 468.583Z" fill="#32449F"/>
<path d="M272.423 471.297C270.333 470.669 268.27 469.924 266.147 469.434C250.446 465.821 234.459 465.084 218.455 465.461C187.255 466.198 156.209 469.59 125.062 471.334C125.983 472.228 127.141 471.848 128.19 471.849C175.333 471.865 222.477 471.861 269.619 471.84C270.567 471.838 271.633 472.205 272.423 471.297Z" fill="#32449F"/>
<path d="M235.425 425.307C236.619 422.569 239.105 422.879 241.412 422.765C250.123 423.241 258.713 424.433 267.041 427.15C267.804 428.313 267.884 429.337 266.455 430.058C259.399 428.334 252.279 427.009 245.057 426.165C242.481 425.863 239.939 425.91 237.387 425.99C236.556 426.017 235.831 426.278 235.425 425.307Z" fill="#CE3A29"/>
<path d="M470.736 437.918C460.001 435.655 449.21 433.645 438.43 431.609C426.069 429.273 413.586 427.794 401.037 427.169C383.39 426.289 366.305 429.335 349.764 435.469C344.682 437.353 339.674 439.426 335.094 442.382C339.985 440.775 344.74 438.831 349.596 437.186C362.501 432.817 375.701 429.919 389.384 429.454C403.717 428.967 417.844 430.658 431.961 432.925C451.001 435.981 469.914 439.705 488.884 443.131C492.51 443.786 496.082 444.959 499.878 444.59C490.166 442.353 480.485 439.973 470.736 437.918Z" fill="#96806C"/>
<path d="M335.027 453.333C368.317 439.288 402.814 439.157 437.805 444.716C402.669 437.481 368.069 436.419 335.027 453.333Z" fill="#96806C"/>
<path d="M346.568 459.886C373.26 451.502 400.377 452.535 427.611 456.088C400.315 451.115 373.153 449.163 346.568 459.886Z" fill="#96806C"/>
<path d="M238.519 422.344C228.6 422.317 218.702 422.355 208.796 423.388C199.244 424.385 189.772 425.764 180.332 427.457C168.934 429.501 157.76 432.555 146.455 435.015C141.058 436.189 135.742 437.741 130.39 439.123C131.074 439.549 131.676 439.599 132.236 439.465C151.086 434.957 170.012 430.9 189.219 428.112C204.38 425.912 219.559 424.985 234.847 425.408C235.039 425.369 235.232 425.336 235.426 425.308C237.234 424.019 239.587 424.015 241.411 422.764C240.522 422.123 239.492 422.347 238.519 422.344Z" fill="#96806C"/>
<path d="M232.757 446.47C221.355 445.635 209.937 446.189 198.567 446.987C189.019 447.657 179.492 448.795 170.024 450.337C163.773 451.355 157.472 452.07 151.332 453.755C179.201 450.215 207.039 446.319 235.256 448.646C235.328 445.658 234.421 446.593 232.757 446.47Z" fill="#96806C"/>
<path d="M162.795 462.136C186.915 459.532 211.084 458.33 235.342 459.405L235.375 457.557C211.054 457.052 186.798 457.584 162.795 462.136Z" fill="#96806C"/>
<path d="M234.88 438.354C234.852 437.748 234.824 437.141 234.797 436.533C233.673 436.021 232.477 436.078 231.284 436.076C219.384 436.037 207.556 437.128 195.758 438.521C188.873 439.333 182.029 440.497 175.166 441.502C195.037 439.532 214.84 436.876 234.88 438.354Z" fill="#96806C"/>
<path d="M267.041 427.15C267.161 428.182 267.019 429.163 266.455 430.059C266.493 430.262 266.531 430.466 266.569 430.671C277.292 433.227 286.159 439.071 294.273 446.278C287.52 436.589 277.997 430.85 267.041 427.15Z" fill="#96806C"/>
<path d="M255.93 459.608C252.106 458.735 248.295 457.588 244.313 458.672C243.459 458.706 242.902 459.194 242.47 459.871C248.465 460.671 254.458 461.471 260.453 462.272C259.499 461.499 258.546 460.726 257.593 459.952C256.954 460.228 256.483 459.735 255.93 459.608Z" fill="#96806C"/>
<path d="M454.253 321.895C448.135 323.7 438.814 326.579 427.617 330.577C389.946 344.033 362.969 353.977 340.375 377.184C334.874 382.835 327.125 391.848 319.823 404.929C318.999 380.812 315.886 361.185 313.018 347.249C310.542 335.225 308.643 326.204 304.161 314.148C297.898 297.311 289.063 281.793 278.521 267.211C272.914 259.455 267.113 251.863 261.23 244.323C259.861 242.567 258.553 241.78 256.29 243.228C246.469 249.519 236.558 255.671 226.663 261.847C219.051 266.597 211.415 271.311 203.79 276.04C208.975 280.816 214.15 285.612 219.198 290.525C226.458 297.593 233.646 304.743 240.501 312.229C245.731 317.943 251.083 323.563 256.166 329.4C267.134 341.997 277.658 354.976 287.217 368.691C294.15 378.641 300.957 388.673 306.038 399.767C309.971 408.351 312.505 417.273 313.514 426.652C313.593 427.38 313.251 428.597 314.315 428.752C314.307 428.767 314.303 428.784 314.295 428.8C314.294 435.028 314.294 441.255 314.294 447.948C319.859 440.292 325.082 433.108 330.302 425.924C331.599 426.033 332.091 424.681 332.725 423.853C342.079 411.613 352.009 399.839 362.435 388.527C374.687 375.235 388.078 363.145 403.175 353.075L403.134 353.108C405.369 351.439 407.915 350.265 410.197 348.675C425.795 338.545 442.233 329.977 459.185 322.364C459.482 322.231 460.27 321.788 461.367 321.228C465.301 319.221 468.677 317.713 471.186 316.655C467.471 317.78 461.534 319.593 454.253 321.895Z" fill="#F7F7DF"/>
<path d="M299.563 421.063C298.781 419.341 297.811 417.717 296.6 416.247C296.156 415.86 295.721 415.464 295.289 415.065C295.163 414.735 295.025 414.412 294.844 414.116C286.951 401.22 277.669 389.396 267.36 378.416C260.397 371 253.195 363.817 245.371 357.3C234.301 348.076 222.76 339.497 210.916 331.327C207.736 329.137 204.556 326.945 201.376 324.755C201.377 325.005 201.329 325.215 201.248 325.399C199.004 322.944 196.439 320.989 193.036 320.336C192.723 320.716 192.477 321.201 192.084 321.463C187.507 324.511 183.14 327.841 178.721 331.113C168.827 338.443 159.829 346.788 150.835 355.121C141.799 363.493 133.429 372.557 124.949 381.495C124.396 382.077 123.812 382.623 123.824 383.512C124.471 384.416 125.451 384.701 126.449 384.659C129.355 384.539 132.173 385.252 135.035 385.453C146.505 386.261 157.947 387.351 169.393 388.412C182.22 389.6 195.024 390.927 207.803 392.565C224.944 394.761 241.949 397.599 258.62 402.232C270.164 405.44 281.359 409.403 290.944 416.933C293.224 418.725 295.161 420.852 297.22 422.865C297.909 423.539 298.817 424.611 299.721 424.012C300.873 423.247 299.992 422.009 299.563 421.063Z" fill="#F7F7DF"/>
<path d="M308.114 449.62C307.798 447.415 307.61 445.176 306.535 443.155C306.105 442.555 305.813 441.873 305.49 441.211C303.307 431.228 297.455 423.44 289.697 416.996C282.905 411.357 274.771 408.123 266.482 405.237C249.479 399.319 231.883 396.161 214.135 393.697C204.835 392.404 195.514 391.276 186.142 390.548C176.489 389.799 166.862 388.709 157.225 387.768C153.446 387.657 149.714 386.768 145.91 387.093C145.893 387.115 145.877 387.137 145.859 387.156C145.809 387.033 145.751 386.905 145.667 386.769C143.157 385.823 140.481 385.895 137.878 385.517C136.551 385.324 135.165 384.895 133.963 385.956C133.943 386.584 133.671 387.084 133.234 387.529C124.93 395.964 117.205 404.924 109.337 413.759C102.121 421.864 94.8115 429.88 88.0142 438.348C99.3222 437.083 110.505 434.999 121.647 432.796C141.05 428.96 160.359 424.656 179.738 420.695C193.029 417.977 206.463 416.069 220.001 415.287C231.593 414.616 243.197 415.167 254.697 416.983C266.187 418.797 277.046 422.252 286.505 429.339C294.419 435.269 300.887 442.339 304.535 451.697C305.071 453.041 306.086 452.777 307.114 452.461C308.149 451.759 308.273 450.731 308.114 449.62Z" fill="#F7F7DF"/>
<path d="M313.106 437.245C312.899 436.377 312.639 435.524 312.439 434.654C312.579 423.289 310.207 412.39 305.767 401.918C299.159 386.336 289.039 372.929 279.051 359.473C270.902 348.493 262.388 337.784 253.37 327.496C245.462 318.477 237.536 309.468 228.886 301.136C225.862 297.948 222.882 294.717 219.507 291.886C219.547 291.806 219.596 291.738 219.631 291.652C217.428 287.974 214.022 285.576 210.623 283.17C210.58 283.141 210.447 283.242 210.356 283.281C209.979 284.006 209.424 284.534 208.699 284.925C196.859 291.321 185.972 299.16 175.147 307.092C175.995 308.393 177.352 309.07 178.603 309.865C199.139 322.916 219.486 336.236 238.84 351.022C251.522 360.709 263.026 371.628 273.459 383.656C283.891 395.682 293.328 408.47 300.864 422.542C305.47 431.141 309.551 439.98 309.946 450.01C309.987 451.028 309.87 452.348 311.527 452.352C312.648 451.732 312.598 450.573 312.79 449.538C313.546 445.46 313.407 441.354 313.106 437.245Z" fill="#F7F7DF"/>
<path d="M519.9 435.439C510.765 421.963 501.475 408.586 492.64 394.914C489.937 390.731 486.589 388.686 481.968 387.542C470.184 384.624 458.323 382.228 446.323 380.355C439.405 379.275 432.475 377.971 425.531 377.702C415.664 377.319 405.745 377.03 395.883 378.69C385.372 380.462 375.272 383.336 365.828 388.331C365.068 388.732 360.736 391.824 360.568 391.883C359.855 392.564 359.071 393.186 358.436 393.934C352.992 400.367 347.447 406.722 342.183 413.3C335.688 421.419 329.316 429.643 323.627 438.366C323.625 438.366 323.625 438.367 323.624 438.368C319.805 443.01 316.504 448 313.607 453.262C313.947 453.667 314.353 453.732 314.817 453.496C315.671 452.296 316.403 450.984 317.395 449.914C324.789 441.926 333.349 435.588 343.289 431.003C357.389 424.499 372.257 421.515 387.624 420.495C391.804 420.03 395.985 420.036 400.165 420.492C406.4 420.443 412.584 421.216 418.789 421.598C431.344 422.368 443.537 425.266 455.88 427.279C461.808 428.246 467.552 430.198 473.58 430.66H473.581C476.081 431.664 478.776 431.711 481.376 432.203C494.625 434.707 507.931 436.872 521.343 438.332C521.173 437.212 520.516 436.35 519.9 435.439Z" fill="#F6F7DF"/>
<path d="M257.592 459.952C254.148 460.683 250.917 459.04 247.532 459.043C246.459 459.044 245.387 458.804 244.313 458.672C245.801 457.021 247.968 456.375 249.683 455.056C250.777 454.212 251.524 455.111 252.272 455.693C254.064 457.089 255.821 458.531 257.592 459.952Z" fill="#CEB096"/>
<path d="M175.147 307.091C223.239 333.601 316.345 404.826 308.593 452.865C305.313 448.958 306.071 437.855 300.859 431.49C273.825 385.427 154.033 392.745 123.374 384.729C182.813 386.582 277.343 394.885 299.626 423.854C267.403 363.841 215.647 339.665 175.147 307.091Z" fill="#AE967F"/>
<path d="M330.327 425.892C351.138 399.364 373.776 371.323 403.176 353.075C345.706 392.665 305.439 476.357 312.166 447.777C318.263 381.875 237.995 313.636 208.618 281.669C206.654 280.624 200.72 273.251 206.828 277.808C260.227 329.455 320.099 392.004 314.994 443.516C312.87 453.463 324.859 428.179 330.327 425.892Z" fill="#92806C"/>
<path d="M444.348 118.58C445.125 116.122 446.492 114.212 448.826 112.902C465.021 103.82 481.2 94.7063 497.326 85.5036C498.998 84.5489 499.904 84.6929 500.714 86.3143C502.184 87.4023 503.12 88.9049 503.998 90.4663C516.717 113.081 529.437 135.694 542.249 158.256C543.12 159.788 544.27 161.258 544.03 163.209C543.537 164.817 542.084 165.394 540.812 166.122C526.158 174.502 511.414 182.721 496.705 191.004C493.308 192.917 490.158 194.804 489.596 199.106C489.544 199.5 489.201 199.781 488.849 199.992C486.956 199.673 486.556 197.94 485.801 196.629C477.296 181.854 469.062 166.925 460.59 152.133C455.909 143.961 451.292 135.753 446.704 127.529C445.742 125.806 444.713 124.09 444.252 122.13C443.764 120.933 443.754 119.748 444.348 118.58Z" fill="#F6F7DF"/>
<path d="M431.501 122.887C432.85 121.791 434.353 120.971 435.989 120.391C436.718 120.629 437.048 121.242 437.384 121.859C445.654 137.05 454.353 152.001 462.797 167.094C468.085 176.549 473.597 185.877 478.757 195.403C479.528 196.825 480.261 198.237 479.565 199.915C478.94 201.142 477.778 201.742 476.656 202.379C462.128 210.622 447.549 218.77 432.982 226.943C431.484 227.783 430.004 229.119 428.025 228.111C425.717 225.955 424.616 223.009 423.114 220.354C410.989 198.906 398.842 177.471 386.786 155.986C385.962 154.517 385.029 153.082 385.098 151.29C384.884 150.379 383.758 149.578 385.43 148.654C398.417 141.485 411.345 134.21 424.292 126.967C425.289 127.143 425.748 127.935 426.186 128.699C429.032 133.662 431.869 138.627 434.677 143.611C435.212 144.558 435.681 145.547 435.461 146.697C434.885 148.117 433.536 148.638 432.345 149.323C423.476 154.426 414.526 159.385 405.682 164.53C414.39 159.786 423 154.865 431.633 149.986C433.077 149.17 434.429 148.031 436.253 148.089C437.966 149.013 438.689 150.475 438.602 152.382C436.934 155.065 433.99 156.038 431.445 157.426C423.881 161.557 416.509 166.026 408.953 170.17C416.865 165.873 424.737 161.503 432.557 157.039C434.765 155.779 436.848 154.189 439.452 153.706C441.213 154.582 441.918 156.055 441.874 157.957C441.126 159.781 439.374 160.454 437.849 161.323C429.734 165.954 421.606 170.563 413.426 175.079C413.084 175.269 412.722 175.434 412.401 175.957C421.054 171.123 429.477 166.233 438.016 161.549C439.553 160.705 440.956 159.429 442.926 159.683C444.472 160.709 445.268 162.126 445.192 164.001C444.046 165.902 441.998 166.614 440.214 167.603C432.68 171.782 425.258 176.166 417.654 180.221C416.985 180.578 416.269 180.893 415.39 181.863C424.534 176.754 433.13 171.686 441.918 166.962C443.208 166.27 444.4 165.274 446.006 165.351C447.722 166.259 448.46 167.701 448.33 169.613C447.422 171.447 445.572 172.107 443.958 173.026C435.536 177.827 427.068 182.546 418.692 187.429C427.761 182.542 436.661 177.353 445.648 172.321C446.761 171.698 447.785 170.827 449.2 170.994C450.801 171.957 451.75 173.294 451.645 175.237C451.173 176.573 449.982 177.146 448.873 177.787C439.866 182.99 430.697 187.906 421.75 193.214C430.029 188.845 438.105 184.111 446.278 179.55C448.236 178.457 450.005 176.859 452.457 176.871C453.826 177.985 455.62 178.626 456.42 180.387C456 181.513 454.989 181.981 454.04 182.51C444.521 187.825 435.005 193.145 425.58 198.626C437.033 192.326 448.348 185.771 459.884 179.614C460.756 179.293 461.64 179.401 462.526 179.542C458.629 173.195 455.098 166.639 451.448 160.155C445.226 149.102 438.974 138.067 432.738 127.023C432.025 125.761 431.01 124.534 431.501 122.887Z" fill="#F6F7DF"/>
<path d="M385.098 151.29C394.431 167.746 403.772 184.199 413.098 200.659C418.179 209.626 423.235 218.606 428.3 227.581C429.686 229.521 431.248 228.597 432.742 227.803C437.828 225.098 442.795 222.178 447.814 219.351C457.159 214.089 466.49 208.799 475.826 203.519C478.819 201.827 481.824 201.135 485.239 202.046C488.148 202.823 491.682 200.734 492.394 197.782C493.128 194.731 494.9 192.773 497.563 191.262C511.814 183.174 526.128 175.198 540.348 167.057C541.93 166.151 543.967 165.545 543.724 163.061C532.204 142.59 520.675 122.123 509.17 101.643C506.312 96.5552 503.531 91.4245 500.714 86.3139C503.195 84.4845 504.696 85.1352 506.204 87.8339C520.103 112.718 534.126 137.534 548.102 162.374C549.908 165.585 549.806 165.97 546.47 167.85C531.767 176.135 517.072 184.431 502.32 192.626C500.11 193.854 498.835 195.019 499.334 197.875C499.806 200.578 498.6 202.927 496.052 204.366C493.459 205.831 490.927 207.411 488.28 208.773C485.822 210.038 481.97 209.434 480.326 207.302C479.196 205.838 478.403 206.133 477.147 206.849C468.263 211.915 459.362 216.954 450.45 221.971C443.96 225.625 437.38 229.123 430.972 232.913C428.344 234.466 427.048 233.955 425.626 231.37C420.312 221.711 414.802 212.162 409.376 202.566C400.875 187.526 392.451 172.442 383.827 157.474C382.231 154.703 382.159 152.841 385.098 151.29Z" fill="#646CCE"/>
<path d="M479.029 199.747C479.307 198.499 478.854 197.487 478.243 196.388C471.269 183.851 463.979 171.494 457.131 158.882C451.133 147.834 444.65 137.048 438.389 126.143C437.347 124.33 436.473 122.442 435.989 120.391C437.835 119.052 439.815 119.56 441.789 119.975C443.401 119.27 443.883 120.799 444.789 121.491C448.467 128.827 452.67 135.871 456.671 143.026C461.013 150.787 465.455 158.495 469.751 166.283C475.421 176.562 481.287 186.732 487.078 196.944C487.661 197.972 488.303 198.967 488.918 199.978C489.295 201.074 488.341 200.85 488.017 200.682C485.35 199.296 482.611 199.383 479.805 200.082C479.535 200.148 479.251 199.944 479.029 199.747Z" fill="#E0E3CC"/>
<path d="M444.789 121.491C443.418 121.719 442.87 120.319 441.789 119.975C442.333 118.943 443.474 119.007 444.347 118.58C444.494 119.55 444.642 120.52 444.789 121.491Z" fill="#646CCE"/>
<path d="M479.029 199.747C482.319 198.084 485.525 197.887 488.585 200.292C488.629 200.327 488.777 200.298 488.823 200.247C488.883 200.183 488.889 200.068 488.918 199.976C488.695 195.819 490.671 193.231 494.295 191.223C510.111 182.456 525.821 173.498 541.559 164.594C542.325 164.16 543.005 163.575 543.725 163.06C545.637 165.092 544.299 166.018 542.515 167.019C527.459 175.479 512.446 184.015 497.375 192.448C494.99 193.783 493.678 195.623 493.271 198.26C492.802 201.3 487.845 204.155 485.034 203.046C482.466 202.032 480.038 202.248 477.613 203.619C462.662 212.067 447.65 220.406 432.763 228.963C430.315 230.371 429.107 230.263 428.301 227.58C429.261 228.351 430.005 227.556 430.714 227.158C446.599 218.227 462.469 209.268 478.338 200.308C478.593 200.164 478.799 199.936 479.029 199.747Z" fill="#E0E3CC"/>
<path d="M427.016 136.191C427.676 137.192 428.788 138.206 426.722 139.347C417.601 144.387 408.52 149.5 399.445 154.624C398.288 155.278 397.546 155.35 396.793 154.032C396.001 152.648 396.684 152.012 397.725 151.423C406.708 146.338 415.69 141.254 424.685 136.19C425.356 135.812 426.102 135.356 427.016 136.191Z" fill="#E0E3CC"/>
<path d="M471.326 187.426C472.214 188.931 471.022 189.299 470.086 189.83C464.735 192.861 459.398 195.913 454.042 198.935C446.702 203.077 439.359 207.217 431.988 211.303C431.275 211.699 430.344 213.021 429.526 211.527C428.742 210.095 430.32 209.885 431.02 209.486C443.515 202.37 456.04 195.307 468.575 188.261C469.398 187.798 470.223 187.135 471.326 187.426Z" fill="#E0E3CC"/>
<path d="M426.418 204.589C429.71 202.672 432.765 200.833 435.873 199.091C445.891 193.473 455.929 187.887 465.965 182.3C466.662 181.912 467.401 180.837 468.198 182.061C468.995 183.285 467.754 183.609 467.071 183.996C455.873 190.349 444.658 196.671 433.443 202.997C431.633 204.019 429.821 205.04 427.991 206.028C427.494 206.297 426.899 206.675 426.415 206.003C426.017 205.449 426.049 204.892 426.418 204.589Z" fill="#E0E3CC"/>
<path d="M474.655 193.254C475.592 194.906 474.136 195.162 473.295 195.642C468.294 198.494 463.266 201.299 458.246 204.117C450.714 208.345 443.186 212.581 435.64 216.785C434.851 217.225 433.804 218.402 433.086 217.234C432.242 215.865 433.86 215.45 434.715 214.966C447.243 207.877 459.786 200.811 472.354 193.791C473.003 193.429 473.7 192.418 474.655 193.254Z" fill="#E0E3CC"/>
<path d="M456.343 180.047C457.605 179.724 458.833 179.963 460.054 180.274C448.579 186.778 437.109 193.29 425.619 199.768C424.915 200.164 423.909 201.071 423.286 199.979C422.566 198.716 423.927 198.367 424.737 197.908C435.269 191.948 445.807 185.999 456.343 180.047Z" fill="#E0E3CC"/>
<path d="M451.225 175.249C451.64 175.918 452.053 176.588 452.465 177.257C443.024 182.522 433.584 187.789 424.143 193.052C423.363 193.485 422.569 193.897 421.777 194.309C421.124 194.649 420.455 195.484 419.783 194.38C419.135 193.312 420.059 193.008 420.731 192.628C424.784 190.328 428.851 188.048 432.899 185.74C439.013 182.252 445.117 178.746 451.225 175.249Z" fill="#E0E3CC"/>
<path d="M435.139 146.721C435.474 147.301 435.809 147.88 436.143 148.46C426.067 154.185 415.989 159.907 405.917 165.637C405.175 166.059 404.423 166.979 403.702 165.735C403.009 164.539 404.091 164.227 404.851 163.799C414.947 158.107 425.043 152.413 435.139 146.721Z" fill="#E0E3CC"/>
<path d="M444.863 163.955C445.211 164.53 445.558 165.105 445.906 165.681C435.889 171.335 425.869 176.989 415.851 182.643C415.083 183.077 414.169 183.819 413.522 182.762C412.799 181.579 414.091 181.282 414.789 180.889C424.805 175.229 434.835 169.594 444.863 163.955Z" fill="#E0E3CC"/>
<path d="M438.307 152.352C438.631 152.936 438.953 153.52 439.277 154.104C431.212 158.739 423.152 163.379 415.08 167.998C413.104 169.128 411.097 170.204 409.089 171.275C408.384 171.652 407.6 172.694 406.863 171.422C406.143 170.178 407.431 169.878 408.092 169.499C414.192 166.003 420.329 162.574 426.448 159.111C430.408 156.87 434.355 154.606 438.307 152.352Z" fill="#E0E3CC"/>
<path d="M441.481 157.994C441.893 158.672 442.305 159.351 442.717 160.028C432.787 165.582 422.863 171.14 412.927 176.682C412.131 177.126 411.123 178.235 410.394 177.035C409.667 175.844 411.063 175.416 411.867 174.958C421.321 169.566 430.786 164.192 440.245 158.81C440.674 158.567 441.069 158.267 441.481 157.994Z" fill="#E0E3CC"/>
<path d="M448.051 169.61C448.386 170.182 448.719 170.752 449.054 171.324C438.906 177.112 428.755 182.899 418.607 188.688C417.938 189.071 417.211 189.8 416.632 188.69C415.867 187.226 417.384 187.007 418.076 186.61C426.496 181.787 434.963 177.042 443.412 172.272C444.966 171.395 446.506 170.498 448.051 169.61Z" fill="#E0E3CC"/>
<path d="M400.486 158.776C401.586 158.111 402.669 157.415 403.788 156.784C411.893 152.22 419.994 147.647 428.14 143.156C428.814 142.784 429.794 141.344 430.572 142.804C431.166 143.923 429.958 144.495 429.093 144.98C420.206 149.972 411.322 154.974 402.412 159.923C401.841 160.24 401.177 161.236 400.369 160.27C399.98 159.803 399.766 159.208 400.486 158.776Z" fill="#E0E3CC"/>
<path d="M431.501 122.887C442.25 141.902 452.998 160.915 463.778 179.985C463.066 180.337 460.852 181.322 458.006 180.797C454.933 180.227 453.148 178.271 452.656 177.693C449.27 172.418 445.889 166.922 442.534 161.201C435.629 149.421 429.588 137.955 424.292 126.967C426.546 125.345 428.973 124.026 431.501 122.887Z" fill="#FE3152"/>
<path d="M564.738 293.253C561.416 297.388 558.408 301.77 555.312 306.081C552.602 309.856 552.251 309.917 548.708 307.1C541.418 301.298 534.211 295.394 526.946 289.562C525.247 288.2 523.663 286.61 521.464 286.02C521.402 284.784 520.206 284.185 519.402 283.434C516.996 281.186 514.312 279.264 511.775 277.166C509.84 275.565 509.566 274.118 511.283 272.16C514.152 268.89 516.627 265.297 519.395 261.941C524.848 255.326 524.812 255.372 531.576 260.816C533.262 262.172 534.616 264.31 537.203 264.106C537.37 266.1 539.006 267.045 540.358 268.142C548.232 274.534 556.022 281.03 563.916 287.396C566.191 289.229 566.706 290.805 564.738 293.253ZM604.41 251.428C593.006 242.105 581.628 232.752 570.242 223.408C564.559 218.486 558.788 213.674 552.719 209.233C550.8 208.364 550.306 210.154 549.551 211.097C541.75 220.837 534.01 230.626 526.266 240.412C515.09 254.534 504.094 268.802 492.726 282.774C491.628 284.124 490.347 285.449 490.526 287.429C490.682 288.004 490.924 288.565 491.363 288.95C496.112 293.124 501.007 297.12 506.052 300.93C506.7 301.418 507.438 301.744 508.248 301.52C508.582 303.172 509.799 304.197 511.019 305.189C521.984 314.098 532.964 322.986 544.007 331.797C544.914 332.52 545.75 333.444 547.106 333.16C566.408 307.402 585.699 281.64 605.036 255.909C606.436 254.045 606.07 252.784 604.41 251.428" fill="#646CCE"/>
<path d="M549.13 206.307C548.63 205.811 548.166 205.274 547.624 204.828C541.168 199.511 538.196 199.826 533.032 206.366C526.031 215.231 519.028 224.095 512.042 232.972C499.888 248.416 487.747 263.87 475.6 279.32C475.571 280.023 476.043 280.499 476.599 280.491C480.115 280.44 482.879 282.458 485.899 283.755C486.139 283.774 486.352 283.752 486.57 283.738C487.882 285.1 489.668 285.922 490.948 287.322C498.264 277.99 505.572 268.651 512.898 259.327C518.55 252.135 524.2 244.943 529.895 237.784C537.482 228.25 545.108 218.748 552.718 209.232C551.728 208.004 550.543 207.016 549.13 206.307Z" fill="#32449F"/>
<path d="M481.119 284.013C479.375 282.599 477.597 282.667 476.233 284.227C475.937 284.267 475.635 284.323 475.323 284.411C470.342 287.697 470.01 291.371 474.363 295.199C477.817 298.235 481.519 300.966 485.082 303.871C500.334 316.307 515.585 328.743 530.903 341.097C532.394 342.298 533.763 344.038 536.111 343.513C537.787 341.301 539.463 339.09 541.141 336.879C541.814 336.089 542.487 335.297 543.159 334.507C522.489 317.663 501.837 300.797 481.119 284.013Z" fill="#F6F7DF"/>
<path d="M521.376 286.804C517.519 283.588 513.71 280.314 509.786 277.184C508.08 275.824 507.68 274.634 509.154 272.825C513.592 267.374 518.015 261.906 522.284 256.322C524.004 254.072 525.348 254.078 527.403 255.893C530.648 258.762 534.128 261.362 537.511 264.078C547.108 272.013 556.638 280.033 566.36 287.813C568.415 289.457 568.27 290.513 566.919 292.306C562.674 297.944 558.408 303.574 554.383 309.368C552.818 311.62 551.815 311.168 550.026 309.718C540.531 302.01 530.936 294.429 521.376 286.804Z" fill="#FE3152"/>
<path d="M491.438 312.419C485.794 306.842 468.286 296.281 468.771 290.155C470.028 283.962 475.718 276.425 482.775 280.746C493.015 287.299 500.762 295.718 510.955 303.414C522.391 314.563 538.146 322.661 546.53 334.045C541.146 338.25 528.895 322.507 524.694 320.703C511.122 309.79 498.232 299.285 484.702 288.313C482.251 286.562 480.151 283.339 476.64 284.549C465.847 290.991 478.486 296.134 483.656 301.173C501.479 316.667 520.91 329.418 537.04 345.555C537.787 353.791 490.623 313.345 491.438 312.419Z" fill="#646CCE"/>
<path d="M227.296 92.8543C229.578 96.9423 231.861 101.03 234.144 105.117C234.686 105.945 234.83 106.865 234.661 107.813C233.954 111.758 235.836 114.254 238.82 116.646C242.904 119.921 246.838 120.641 251.252 117.632C257.83 117.132 264.076 119.184 270.414 120.329C289.286 123.74 308.162 127.122 327.025 130.585C337.517 132.512 348.014 134.412 358.516 136.292C359.98 136.554 361.454 136.76 362.692 137.69C364.408 138.065 366.112 138.52 367.844 138.792C369.537 139.057 370.884 139.73 370.465 141.616C370.089 143.31 368.553 143.245 367.132 142.99C358.46 141.44 349.785 139.897 341.112 138.348C313.233 133.366 285.352 128.401 257.482 123.369C255.144 122.948 253.086 122.849 250.888 124.124C242.44 129.02 227.084 118.077 228.933 108.449C229.405 105.99 229.064 103.905 227.322 102.089C223.489 99.2636 221.708 95.3463 221.256 90.717C205.25 62.2076 189.244 33.6983 173.24 5.18763C172.497 3.86496 171.574 2.30496 173.27 1.25696C175.181 0.0769639 176.148 1.62096 176.981 3.14763C177.885 4.80096 178.898 6.39563 179.864 8.01563C181.397 8.74896 182.309 10.0556 183.104 11.4863C195.649 34.033 208.458 56.4343 220.836 79.0743C222.018 82.273 224.27 84.881 225.753 87.9156C226.521 89.489 227.537 90.9716 227.296 92.8543Z" fill="#FE3152"/>
<path d="M221.256 90.7177C223.279 94.5083 225.3 98.299 227.321 102.088C223.033 108.111 218.747 114.135 214.256 120.444C212.573 118.054 214.155 114.71 212.127 113.848C210.297 113.072 207.719 114.063 204.417 114.375C210.367 106.016 215.812 98.367 221.256 90.7177Z" fill="#646CCE"/>
<path d="M194.998 12.7931C194.336 11.9237 193.687 11.1411 192.498 10.8851C188.276 9.9744 184.074 8.9784 179.864 8.01707C193.314 32.0837 206.76 56.1491 220.208 80.2144C225.628 80.5704 229.592 77.8771 233.039 74.0957C222.84 52.1224 209.638 32.0117 194.998 12.7931Z" fill="#F7F7DF"/>
<path d="M361.224 135.356C358.461 129.082 354.453 124.802 347.024 123.742C340.089 122.752 333.364 120.352 326.512 118.719C304.751 113.535 282.999 108.286 260.587 106.619C259.703 106.554 258.607 107.023 257.485 105.763C267.891 104.964 277.708 105.972 287.497 107.498C309.373 110.91 330.799 116.235 351.981 122.61C353.093 122.944 354.755 124.222 355.4 122.172C355.884 120.636 354.219 120.691 353.264 120.412C326.448 112.538 299.488 105.344 271.487 103.036C270.749 102.975 269.581 103.548 269.236 101.979C270.512 101.824 271.707 101.639 272.909 101.536C291.551 99.939 310.028 101.782 328.447 104.375C336.631 105.527 344.752 107.12 352.909 108.468C353.857 108.626 355.229 109.356 355.491 107.61C355.696 106.239 354.399 106.318 353.56 106.034C353.179 105.904 352.761 105.884 352.363 105.807C330.363 101.575 308.253 98.2977 285.775 98.4164C280.864 98.443 275.953 98.7084 271.043 98.8644C271.979 98.0897 272.971 97.7777 273.984 97.583C289.644 94.575 305.491 93.8844 321.376 94.1084C331.269 94.2484 341.155 94.8964 351.047 95.2497C351.952 95.283 353.408 96.0977 353.68 94.375C354.024 92.207 352.212 92.9097 351.199 92.791C348.912 92.523 346.608 92.3724 344.307 92.2537C319.884 90.995 295.489 90.579 271.352 95.503C266.821 96.427 262.397 97.8724 257.025 99.319C264.803 93.003 272.264 87.8977 280.025 83.199C297.924 72.3604 316.721 63.3217 335.929 55.0884C337.031 54.6164 339.133 54.4724 338.289 52.5577C337.561 50.9084 336.148 52.2764 335.159 52.679C324.228 57.1337 313.535 62.1204 303.02 67.4697C284.859 76.7097 267.237 86.823 251.368 100.815C253.025 95.4964 254.725 90.931 255.863 86.2297C262.088 60.5097 262.273 34.3897 260.752 8.1737C260.657 6.5497 260.516 4.92704 260.379 3.3057C260.321 2.63637 260.284 1.85237 259.363 1.8617C258.457 1.87237 257.797 2.31371 257.84 3.35104C257.875 4.16304 257.967 4.9737 258.019 5.78437C259.392 27.215 259.383 48.6084 256.371 69.9244C256.029 72.3377 255.589 74.739 255.151 77.1364C254.744 79.3697 254.277 81.591 253.836 83.8164C254.929 57.1337 252.211 30.8764 247.955 4.73104C247.739 3.40304 248.485 0.712371 246.052 1.08037C243.907 1.40437 245.381 3.58437 245.533 4.83504C246.627 13.8537 248.093 22.831 249.009 31.8657C251.048 51.9884 252.58 72.1404 249.336 92.2977C248.888 95.091 248.597 97.9844 246.779 100.778C245.448 94.9417 244.423 89.4857 242.956 84.1524C235.664 57.643 224.773 32.5097 213.387 7.57771C212.871 6.44704 212.844 3.86437 210.812 4.7897C208.865 5.6737 210.756 7.3737 211.155 8.63637C211.599 10.0484 212.363 11.3577 212.975 12.7177C222.375 33.6337 231.275 54.7484 238.128 76.6617C239.916 82.379 241.645 88.1324 241.891 94.283C240.761 91.599 239.632 88.9137 238.503 86.2297C233.727 86.9017 229.512 88.531 226.975 93.0017C228.015 98.0137 230.492 102.259 233.881 106.019C239.38 108.92 245.029 111.595 249.439 116.168C249.651 116.292 249.869 116.384 250.089 116.476C250.111 117.384 251.055 117.799 251.872 118.28C272.409 121.903 292.943 125.543 313.484 129.143C329.881 132.016 346.288 134.843 362.692 137.69C362.203 136.912 361.713 136.134 361.224 135.356Z" fill="#F7F7DF"/>
<path d="M220.208 80.2143C224.708 78.6409 228.795 76.2049 233.04 74.0956C235.64 77.7889 237.191 81.9543 238.503 86.2289C234.804 88.5009 230.648 89.9983 227.296 92.8556C224.871 88.6756 222.123 84.6783 220.208 80.2143Z" fill="#646CCE"/>
<path d="M250.373 115.464C250.872 116.404 251.371 117.342 251.871 118.281C247.68 121.72 244.332 121.993 240.237 119.234C232.981 114.344 232.009 112.092 234.144 105.116C240.413 107.218 245.932 110.496 250.373 115.464Z" fill="#646CCE"/>
</svg>
