<svg width="286" height="279" viewBox="0 0 286 279" fill="none" xmlns="http://www.w3.org/2000/svg">
<g filter="url(#filter0_ddddd_104_79)">
<path d="M47.4205 233.211C99.9803 258.262 185.197 258.263 237.757 233.212C290.316 208.16 290.316 167.545 237.757 142.494C185.197 117.443 99.9796 117.443 47.4198 142.493C-5.14004 167.544 -5.14004 208.16 47.4205 233.211Z" fill="#F5F5F5"/>
<path d="M225.183 212.252C232.029 215.515 243.126 215.515 249.971 212.252C256.816 208.991 256.816 203.701 249.971 200.438C243.126 197.176 232.029 197.176 225.183 200.438C218.338 203.701 218.338 208.991 225.183 212.252Z" fill="#ECECEC"/>
<path d="M43.3926 207.543L49.5894 203.966C49.5894 203.966 54.7015 200.209 57.2332 193.232C59.1485 187.954 58.8846 183.939 57.5108 181.926C55.8213 179.449 51.4498 179.881 51.2759 185.103C50.9341 195.386 47.9341 202.5 43.3926 207.543Z" fill="#D4C2FA"/>
<g opacity="0.199997">
<g opacity="0.199997">
<path opacity="0.199997" d="M43.3926 207.543L49.5894 203.966C49.5894 203.966 54.7015 200.209 57.2332 193.232C59.1485 187.954 58.8846 183.939 57.5108 181.926C55.8213 179.449 51.4498 179.881 51.2759 185.103C50.9341 195.386 47.9341 202.5 43.3926 207.543Z" fill="black"/>
</g>
</g>
<path d="M43.3929 207.925C43.2716 207.925 43.1534 207.868 43.0786 207.76C42.9589 207.588 43.0024 207.35 43.1755 207.23C57.5134 197.309 54.7361 183.486 54.7064 183.348C54.6614 183.142 54.7926 182.939 54.9985 182.895C55.206 182.849 55.4074 182.982 55.4516 183.187C55.4829 183.33 58.3799 197.637 43.6095 207.857C43.5432 207.904 43.4677 207.925 43.3929 207.925Z" fill="white"/>
<path d="M30.9988 214.699C30.9988 214.699 28.8417 212.942 29.3635 210.565C29.886 208.187 31.2773 206.477 28.8852 203.409C26.4931 200.341 25.8753 196.254 28.6884 194.037C30.8631 192.323 34.2567 194.753 35.4817 190.211C36.3756 186.901 36.0705 179.571 40.294 177.132C44.5168 174.695 47.1392 178.365 46.4908 183.337C45.9103 187.785 45.0942 192.067 45.7235 193.232C46.9553 195.512 49.0728 195.206 48.9767 199.385C48.8867 203.275 45.2078 206.495 45.2078 206.495L30.9988 214.699Z" fill="#D4C2FA"/>
<path d="M38.0865 210.988C37.8958 210.988 37.7318 210.846 37.7082 210.653C36.6166 201.614 39.2177 186.01 41.3695 181.371C41.458 181.18 41.683 181.095 41.876 181.186C42.0674 181.274 42.1506 181.501 42.0613 181.691C39.9477 186.249 37.4214 201.922 38.4656 210.561C38.4908 210.77 38.3413 210.96 38.133 210.985C38.117 210.987 38.1018 210.988 38.0865 210.988Z" fill="white"/>
<path d="M37.8802 203.952C37.8238 203.952 37.7673 203.939 37.7132 203.913C35.0663 202.619 33.389 198.023 33.3188 197.828C33.2471 197.63 33.3501 197.412 33.5484 197.34C33.7467 197.269 33.9649 197.371 34.0366 197.57C34.0526 197.615 35.6796 202.069 38.048 203.228C38.2372 203.32 38.3158 203.549 38.2235 203.738C38.1571 203.873 38.0213 203.952 37.8802 203.952Z" fill="white"/>
<path d="M37.8372 206.998C37.6861 206.998 37.5427 206.907 37.4832 206.758C37.4047 206.563 37.5 206.341 37.6953 206.262C42.1491 204.477 44.9256 199.17 44.9531 199.117C45.0499 198.93 45.2795 198.855 45.4664 198.953C45.6541 199.049 45.7273 199.279 45.6312 199.467C45.5129 199.695 42.6945 205.081 37.979 206.97C37.9325 206.989 37.8844 206.998 37.8372 206.998Z" fill="white"/>
<path d="M193.543 165.965C193.543 165.965 190.207 160.57 189.885 154.698C189.563 148.825 190.853 146.387 192.621 145.687C194.389 144.988 194.523 147.143 195.436 148.42C196.351 149.698 198.198 148.966 198.88 144.995C199.563 141.024 202.067 134.293 207.247 133.008C212.969 131.591 209.899 138.302 208.464 140.921C207.026 143.539 205.907 147.105 206.854 148.076C207.801 149.047 209.269 147.253 210.678 148.916C212.378 150.924 207.093 158.142 204.059 159.893L193.543 165.965Z" fill="#D4C2FA"/>
<path d="M198.112 163.694C198.105 163.694 198.099 163.694 198.092 163.693C197.881 163.682 197.72 163.502 197.732 163.293C198.571 147.673 206.194 136.856 206.271 136.749C206.394 136.576 206.632 136.538 206.803 136.661C206.974 136.783 207.014 137.021 206.891 137.193C206.815 137.299 199.321 147.946 198.493 163.332C198.482 163.536 198.314 163.694 198.112 163.694Z" fill="white"/>
<path d="M198.548 159.191C198.486 159.191 198.422 159.175 198.363 159.144C196.227 157.961 195.044 154.453 194.995 154.304C194.929 154.105 195.036 153.889 195.237 153.822C195.436 153.754 195.653 153.865 195.719 154.064C195.73 154.098 196.858 157.439 198.733 158.476C198.916 158.578 198.984 158.809 198.881 158.994C198.813 159.12 198.682 159.191 198.548 159.191Z" fill="white"/>
<path d="M198.922 156.879C198.751 156.879 198.596 156.764 198.553 156.591C198.5 156.386 198.624 156.179 198.828 156.128C204.334 154.735 206.241 151.85 206.259 151.822C206.374 151.645 206.609 151.594 206.786 151.706C206.963 151.819 207.016 152.053 206.903 152.23C206.821 152.359 204.84 155.394 199.016 156.867C198.984 156.875 198.953 156.879 198.922 156.879Z" fill="white"/>
<path d="M110.569 154.106C110.569 154.106 103.254 152.322 102.874 138.627C102.463 123.843 104.665 106.597 96.0392 105.194C87.413 103.791 82.5724 114.37 82.683 126.661C82.7799 137.453 87.1262 160.871 110.568 165.46L110.569 154.106Z" fill="#D4C2FA"/>
<g opacity="0.199997">
<g opacity="0.199997">
<path opacity="0.199997" d="M110.569 154.106C110.569 154.106 103.254 152.322 102.874 138.627C102.463 123.843 104.665 106.597 96.0392 105.194C87.413 103.791 82.5724 114.37 82.683 126.661C82.7799 137.453 87.1262 160.871 110.568 165.46L110.569 154.106Z" fill="black"/>
</g>
</g>
<path d="M110.568 164.052C110.545 164.052 110.522 164.05 110.5 164.046C105.225 163.085 100.932 160.184 97.7399 155.422C88.2624 141.284 91.2487 114.896 92.2289 110.285C92.2731 110.08 92.4745 109.949 92.6812 109.992C92.8871 110.036 93.0191 110.238 92.9756 110.444C92.0061 115.002 89.045 141.081 98.373 154.997C101.446 159.581 105.572 162.373 110.636 163.295C110.844 163.333 110.981 163.532 110.943 163.739C110.909 163.923 110.749 164.052 110.568 164.052Z" fill="white"/>
<path d="M110.569 199.212C103.006 200.237 90.7222 200.219 83.6467 194.638C76.5712 189.057 78.0426 184.248 80.7649 182.242C83.4865 180.235 85.8503 177.942 81.1684 173.49C76.4857 169.037 68.9594 161.883 66.5254 151.149C64.0914 140.416 65.2905 133.708 70.0792 131.471C74.7276 129.301 75.951 132.748 78.7962 139.858C81.6406 146.969 88.0426 140.873 93.5162 143.093C98.9891 145.312 98.7748 149.706 99.1196 153.484C99.4643 157.26 101.272 158.304 104.371 158.304C107.47 158.304 110.567 160.093 110.568 163.67L110.569 199.212Z" fill="#D4C2FA"/>
<path d="M110.569 186.751C110.535 186.751 110.5 186.746 110.466 186.736C110.139 186.645 102.318 184.368 90.9343 173.912C78.8077 162.772 73.0824 146.071 73.0259 145.904C72.9588 145.704 73.0656 145.488 73.2654 145.42C73.4653 145.355 73.6819 145.461 73.749 145.66C73.8047 145.826 79.4714 162.346 91.4507 173.35C102.682 183.667 110.593 185.979 110.672 186.002C110.875 186.06 110.993 186.269 110.936 186.473C110.889 186.64 110.736 186.751 110.569 186.751Z" fill="white"/>
<path d="M94.1013 176.575C93.9488 176.575 93.8046 176.482 93.7459 176.332C91.2982 170.041 90.7436 156.594 90.7215 156.025C90.7131 155.815 90.8771 155.638 91.0876 155.629C91.2829 155.631 91.4751 155.784 91.4835 155.996C91.4888 156.133 92.0556 169.884 94.4568 176.054C94.5331 176.251 94.4354 176.472 94.2394 176.549C94.1944 176.566 94.1479 176.575 94.1013 176.575Z" fill="white"/>
<path d="M94.0374 185.621C92.852 185.621 92.0321 185.528 91.9329 185.516C91.7239 185.492 91.5744 185.302 91.5996 185.093C91.624 184.884 91.8124 184.729 92.0229 184.759C92.0938 184.766 99.1907 185.569 102.451 182.245C102.597 182.093 102.84 182.093 102.99 182.238C103.14 182.386 103.143 182.628 102.995 182.778C100.609 185.211 96.5225 185.621 94.0374 185.621Z" fill="white"/>
<path d="M74.7131 56.8582C71.2394 59.5889 70.1814 60.1847 69.5529 56.5363C68.9244 52.888 70.9564 47.3243 74.4301 44.5935C77.9045 41.862 79.2371 41.6584 79.8656 45.3067C80.4941 48.9551 78.1867 54.1267 74.7131 56.8582ZM88.5445 41.1832L87.7252 36.4273L83.4819 39.2198C83.0563 38.4074 82.5102 37.7545 81.8679 37.261L83.8984 31.7682L80.1181 30.9231L77.3248 36.245C76.3988 36.3876 75.4224 36.6996 74.4148 37.1923L73.2058 33.1809L68.678 36.7408L68.9747 41.47C68.0578 42.489 67.2196 43.605 66.4713 44.7781L62.7299 44.5935L60.1074 50.473L63.3195 51.8437C62.9808 53.1084 62.7627 54.3632 62.6849 55.5699L58.6071 59.3204L59.4255 64.0763L63.6688 61.2838C64.0945 62.0969 64.6406 62.7499 65.2829 63.2426L63.2524 68.7354L67.0334 69.5813L71.0289 65.685C71.9549 65.5432 71.7291 63.804 72.7359 63.3113L73.9449 67.3227L78.4728 63.7628L78.3561 61.9032C79.2729 60.8834 82.7336 58.6339 83.4819 57.4608L84.4209 55.9101L87.0441 50.0306L85.8214 47.8163L84.4659 44.9337L88.5445 41.1832Z" fill="#E1E1E1"/>
<path d="M80.1181 30.9227L85.0647 33.7755L82.2714 39.0974L77.3248 36.2454L80.1181 30.9227Z" fill="#F5F5F5"/>
<path d="M92.672 39.2802L88.4287 42.0728L83.4821 39.22L87.7254 36.4275L92.672 39.2802Z" fill="#F5F5F5"/>
<path d="M91.9906 52.8831L88.7778 51.5131L83.8312 48.6603L87.044 50.0303L91.9906 52.8831Z" fill="#E1E1E1"/>
<path d="M63.2521 68.7356L68.1987 71.5884L70.2292 66.0956L65.2833 63.2429L63.2521 68.7356Z" fill="#E1E1E1"/>
<path d="M78.8917 70.1757L73.9451 67.3229L72.7361 63.3114L77.6827 66.1642L78.8917 70.1757Z" fill="#E1E1E1"/>
<path d="M79.66 59.711C76.1863 62.4425 72.8606 61.698 72.2321 58.0497C71.6035 54.4013 73.9109 49.2297 77.3846 46.499C80.8583 43.7675 84.184 44.5112 84.8118 48.1595C85.4403 51.8079 83.1337 56.9795 79.66 59.711ZM93.4906 44.0359L92.6722 39.28L88.4288 42.0726C88.0032 41.2602 87.4571 40.6073 86.8148 40.1138L88.8453 34.621L85.0642 33.7759L82.2717 39.0977C81.3457 39.2404 80.3686 39.5524 79.3617 40.0451L78.1527 36.0337L73.6249 39.5935L73.9216 44.3228C73.0048 45.3418 72.1665 46.4578 71.4182 47.6309L67.6768 47.4463L65.0544 53.3258L68.2664 54.6965C67.927 55.9612 67.7096 57.2159 67.6318 58.4234L63.5532 62.1732L64.3724 66.9291L68.6158 64.1366C69.0414 64.9497 69.5875 65.6027 70.2298 66.0962L68.1993 71.5882L71.9796 72.4341L74.7729 67.1114C75.6989 66.9696 76.6752 66.6568 77.6829 66.1641L78.8919 70.1755L83.4197 66.6156L83.123 61.8872C84.0398 60.8674 84.8781 59.7522 85.6264 58.5783L89.3678 58.7629L91.991 52.8834L88.7782 51.5127C89.1176 50.248 89.3358 48.994 89.4121 47.7865L93.4906 44.0359Z" fill="#ECECEC"/>
<path d="M78.153 36.0336L73.2064 33.1809L68.6786 36.7407L73.6244 39.5935L78.153 36.0336Z" fill="#F5F5F5"/>
<path d="M68.6783 36.7408L68.9751 41.47L73.9216 44.322L73.6249 39.5936L68.6783 36.7408Z" fill="#E1E1E1"/>
<path d="M71.418 47.6309L66.4714 44.7781L62.73 44.5935L67.6766 47.4463L71.418 47.6309Z" fill="#F5F5F5"/>
<path d="M62.73 44.5935L60.1075 50.473L65.0541 53.3258L67.6766 47.4463L62.73 44.5935Z" fill="#E1E1E1"/>
<path d="M67.6321 58.423L62.6855 55.5702L58.6069 59.3208L63.5535 62.1736L67.6321 58.423Z" fill="#F5F5F5"/>
<path d="M64.3725 66.929L59.4259 64.0762L58.6067 59.3203L63.5533 62.1731L64.3725 66.929Z" fill="#E1E1E1"/>
<path d="M85.0646 33.7754L80.118 30.9226L83.8991 31.7686L88.8457 34.6206L85.0646 33.7754Z" fill="#F5F5F5"/>
<path d="M46.6021 37.3476C41.8829 40.0722 38.9492 38.1393 38.9492 32.6901C38.9492 27.2408 42.8493 20.565 47.5693 17.8403C52.2886 15.1157 55.1475 17.0974 55.1475 22.5467C55.1475 27.9967 51.3214 34.6229 46.6021 37.3476ZM66.3817 19.613V12.5093L60.7287 15.0577C60.3878 13.7458 59.8683 12.6207 59.2017 11.6931L62.7631 4.51161L58.413 2.00055L53.9751 8.6756C52.8378 8.56194 51.6044 8.67484 50.2978 9.03563L49.6777 2.86553L43.5266 6.41702L42.9065 13.3026C41.5999 14.4506 40.3665 15.7625 39.2292 17.1889L34.7913 15.639L30.4412 23.1729L34.0026 26.2416C33.336 27.9395 32.8165 29.6641 32.4756 31.3697L26.8226 35.3483V42.4513L32.4756 39.9036C32.8165 41.2148 33.336 42.3399 34.0026 43.2675L30.4412 50.449L34.7913 52.9608L39.2292 46.285C40.3665 46.3987 41.5999 46.2865 42.9065 45.9257L43.5266 52.0951L49.6777 48.5436L50.2978 41.658C52.1307 41.047 54.0918 39.6275 55.2291 38.2011L58.413 39.3224L62.7631 31.7885L60.0941 29.4887C60.7608 27.7908 60.8317 25.076 60.7287 23.5917L66.3817 19.613Z" fill="#E1E1E1"/>
<path d="M63.3602 4.85278L58.4136 2L53.975 8.67581L58.9216 11.5278L63.3602 4.85278Z" fill="#F5F5F5"/>
<path d="M71.3283 15.362L66.3817 12.5092L60.7288 15.0576L65.6754 17.9104L71.3283 15.362Z" fill="#F5F5F5"/>
<path d="M48.4734 54.948L43.5268 52.0952L42.9066 45.9251L47.854 48.7779L48.4734 54.948Z" fill="#E1E1E1"/>
<path d="M30.4412 50.4492L35.3878 53.302L38.9492 46.1205L34.0026 43.2677L30.4412 50.4492Z" fill="#E1E1E1"/>
<path d="M51.5491 40.2001C46.8298 42.9247 43.0037 40.7157 43.0037 35.2665C43.0037 29.8172 46.8298 23.191 51.5491 20.4656C56.2684 17.7417 60.0944 19.9499 60.0944 25.3992C60.0944 30.8492 56.2684 37.4755 51.5491 40.2001ZM71.3286 22.4656V15.3618L65.6757 17.9103C65.3347 16.5983 64.8153 15.4732 64.1486 14.5457L67.71 7.36414L63.3599 4.85308L58.9213 11.5281C57.7848 11.4145 56.5513 11.5274 55.2447 11.8882L54.6246 5.71806L48.4736 9.26955L47.8534 16.1551C46.5468 17.3031 45.3134 18.6151 44.1761 20.0415L39.7375 18.4915L35.3881 26.0254L38.9495 29.0941C38.2829 30.792 37.7634 32.5167 37.4225 34.2222L31.7695 38.2009V45.3038L37.4225 42.7562C37.7634 44.0674 38.2829 45.1925 38.9495 46.1208L35.3881 53.3023L39.7375 55.8134L44.1761 49.1383C45.3134 49.2512 46.5468 49.1391 47.8534 48.7783L48.4736 54.9476L54.6246 51.3961L55.2447 44.5105C56.5513 43.3633 57.7848 42.0514 58.9213 40.625L63.3599 42.1749L67.71 34.641L64.1486 31.5716C64.8153 29.8736 65.3347 28.1498 65.6757 26.4442L71.3286 22.4656Z" fill="#ECECEC"/>
<path d="M39.2296 17.1887L44.1762 20.0415L39.7376 18.4915L34.791 15.6388L39.2296 17.1887Z" fill="#F0F0F0"/>
<path d="M35.3877 26.0255L30.4412 23.1727L34.7913 15.6388L39.7378 18.4916L35.3877 26.0255Z" fill="#F5F5F5"/>
<path d="M30.4412 23.1724L35.3878 26.0252L38.9492 29.0946L34.0026 26.2411L30.4412 23.1724Z" fill="#E1E1E1"/>
<path d="M32.4759 31.3694L37.4225 34.2221L31.7696 38.2015L26.823 35.3488L32.4759 31.3694Z" fill="#F5F5F5"/>
<path d="M26.8229 35.3486L31.7695 38.2014V45.3043L26.8229 42.4515V35.3486Z" fill="#E1E1E1"/>
<path d="M54.6247 5.71842L49.6781 2.86565L43.5264 6.41712L48.4737 9.2699L54.6247 5.71842Z" fill="#F5F5F5"/>
<path d="M118.087 209.419L189.807 168.012C190.536 167.59 190.537 166.908 189.807 166.485L183.173 162.647C182.444 162.224 181.261 162.224 180.531 162.645L108.792 204.053C108.062 204.474 108.062 205.157 108.792 205.578L115.444 209.419C116.174 209.84 117.357 209.84 118.087 209.419Z" fill="#E1E1E1"/>
<path d="M187.824 8.15674L123.165 45.487C121.342 46.5404 119.863 49.1018 119.863 51.2078V204.579C119.863 206.685 121.342 207.539 123.165 206.486L187.824 169.156C189.649 168.102 191.127 165.541 191.127 163.435L191.127 10.0637C191.127 7.95766 189.648 7.10335 187.824 8.15674Z" fill="#375A64"/>
<path d="M123.166 45.4871L187.824 8.15686C189.455 7.2156 190.806 7.80141 191.075 9.44137C190.827 7.4757 189.472 5.29493 187.824 4.34298L185.134 2.78997C183.311 1.73734 180.353 1.73734 178.528 2.78997L113.871 40.1202C112.958 40.6473 112.133 41.5504 111.535 42.5863L120.83 47.9524C121.428 46.9173 122.254 46.0134 123.166 45.4871Z" fill="#2B454E"/>
<path d="M110.569 199.212C110.569 201.319 112.047 203.88 113.872 204.933L116.561 206.486C118.21 207.438 120.779 207.521 122.605 206.751C121.049 207.342 119.863 206.464 119.863 204.579V51.2076C119.863 50.1542 120.232 48.9879 120.831 47.9521L111.535 42.586C110.937 43.621 110.568 44.7881 110.568 45.8415L110.569 199.212Z" fill="#1A2E35"/>
<path d="M124.944 65.9275L186.046 30.6491C187.142 30.0175 188.029 30.5301 188.029 31.7933L188.03 145.283C188.03 146.547 187.142 148.084 186.047 148.715L124.944 183.994C123.85 184.625 122.962 184.113 122.962 182.849V69.3599C122.962 68.096 123.849 66.5598 124.944 65.9275Z" fill="white"/>
<path d="M155.495 32.6402C154.854 33.0109 154.333 33.9117 154.333 34.6524C154.333 35.3938 154.854 35.6936 155.495 35.3236C156.137 34.9529 156.657 34.0521 156.657 33.3107C156.657 32.57 156.137 32.2695 155.495 32.6402Z" fill="#2B454E"/>
<path d="M155.497 171.804C152.963 173.267 150.909 176.825 150.909 179.751C150.909 182.676 152.963 183.862 155.497 182.399C158.03 180.937 160.084 177.379 160.084 174.453C160.084 171.528 158.03 170.342 155.497 171.804Z" fill="#2B454E"/>
<path d="M144.521 44.4457C143.238 45.1871 142.197 46.9888 142.197 48.4709C142.197 49.953 143.238 50.5533 144.521 49.8126C145.805 49.0712 146.845 47.2695 146.845 45.7874C146.845 44.3053 145.804 43.705 144.521 44.4457Z" fill="#2B454E"/>
<path d="M150.203 43.9432C150.203 44.931 150.943 45.3056 151.854 44.7785L167.142 35.9524C168.054 35.4253 168.794 34.198 168.794 33.2102C168.793 32.2216 168.054 31.8479 167.142 32.3742L151.854 41.201C150.943 41.7274 150.203 42.9554 150.203 43.9432Z" fill="#2B454E"/>
<path d="M115.711 70.8386C116.737 71.4313 117.569 72.8729 117.569 74.0591C117.569 75.2444 116.737 75.725 115.711 75.1315C114.684 74.5396 113.851 73.0972 113.851 71.9118C113.851 70.7265 114.684 70.2459 115.711 70.8386Z" fill="#2B454E"/>
<path d="M115.711 85.1607C116.737 85.7533 117.569 87.195 117.569 88.3811C117.569 89.5664 116.737 90.047 115.711 89.4543C114.684 88.8616 113.851 87.42 113.851 86.2339C113.851 85.0485 114.684 84.568 115.711 85.1607Z" fill="#2B454E"/>
<path d="M115.136 71.1256C116.163 71.7183 116.996 73.1599 116.996 74.3453C116.996 75.5307 116.163 76.012 115.136 75.4186C114.11 74.8259 113.277 73.3842 113.277 72.1988C113.277 71.0135 114.11 70.5329 115.136 71.1256Z" fill="#375A64"/>
<path d="M115.136 85.4478C116.163 86.0405 116.996 87.4822 116.996 88.6683C116.996 89.8536 116.163 90.3342 115.136 89.7415C114.11 89.1488 113.277 87.7064 113.277 86.521C113.277 85.3357 114.11 84.8551 115.136 85.4478Z" fill="#375A64"/>
<path d="M200.423 35.3822C200.423 34.1183 199.536 33.6065 198.441 34.2381L191.127 38.4608L137.338 69.5164C136.243 70.148 135.356 71.685 135.356 72.9489L135.357 186.438C135.357 187.702 136.244 188.213 137.338 187.582L191.147 156.515L198.441 152.304C199.536 151.672 200.424 150.135 200.424 148.872L200.423 35.3822Z" fill="white"/>
<path d="M200.423 35.3822C200.423 34.1183 199.536 33.6065 198.441 34.238L191.127 38.4608L137.338 69.5164C136.243 70.148 135.356 71.685 135.356 72.9489L135.357 186.438C135.357 187.702 136.244 188.213 137.338 187.582L191.147 156.515L198.441 152.304C199.536 151.672 200.424 150.135 200.424 148.872L200.423 35.3822Z" stroke="#D4C2FA" stroke-width="1.33333" stroke-miterlimit="10"/>
<path d="M136.453 188.235C136.199 188.235 135.96 188.174 135.746 188.051C135.249 187.764 134.975 187.191 134.975 186.438V72.9484C134.975 71.5419 135.929 69.8889 137.147 69.1857L190.937 38.13L191.318 38.7906L137.529 69.8462C136.558 70.4069 135.738 71.8271 135.738 72.9484V186.438C135.738 186.9 135.881 187.247 136.128 187.391C136.376 187.533 136.747 187.482 137.147 187.252L190.956 156.185L191.337 156.845L137.529 187.912C137.157 188.127 136.791 188.235 136.453 188.235Z" fill="#D4C2FA"/>
<path d="M136.453 188.235C136.199 188.235 135.96 188.174 135.746 188.051C135.249 187.764 134.975 187.191 134.975 186.438V72.9484C134.975 71.5419 135.929 69.8889 137.147 69.1857L190.937 38.13L191.318 38.7906L137.529 69.8462C136.558 70.4069 135.738 71.8271 135.738 72.9484V186.438C135.738 186.9 135.881 187.247 136.128 187.391C136.376 187.533 136.747 187.482 137.147 187.252L190.956 156.185L191.337 156.845L137.529 187.912C137.157 188.127 136.791 188.235 136.453 188.235Z" stroke="#D4C2FA" stroke-width="1.33333" stroke-miterlimit="10"/>
<path d="M191.337 156.845L190.956 156.185L198.25 151.974C199.222 151.413 200.042 149.992 200.042 148.872L200.041 35.3823C200.041 34.9201 199.899 34.573 199.652 34.4296C199.405 34.287 199.033 34.3366 198.632 34.5684L191.318 38.7904L190.937 38.1298L198.25 33.9079C198.902 33.5318 199.535 33.4815 200.033 33.7691C200.53 34.0559 200.804 34.6287 200.804 35.3823L200.805 148.872C200.805 150.278 199.851 151.931 198.632 152.634L191.337 156.845Z" fill="#D4C2FA"/>
<path d="M191.337 156.845L190.956 156.185L198.25 151.974C199.222 151.413 200.042 149.992 200.042 148.872L200.041 35.3823C200.041 34.9201 199.899 34.573 199.652 34.4296C199.405 34.287 199.033 34.3366 198.632 34.5684L191.318 38.7904L190.937 38.1298L198.25 33.9079C198.902 33.5318 199.535 33.4815 200.033 33.769C200.53 34.0559 200.804 34.6287 200.804 35.3823L200.805 148.872C200.805 150.278 199.851 151.931 198.632 152.634L191.337 156.845Z" stroke="#D4C2FA" stroke-width="1.33333" stroke-miterlimit="10"/>
<path d="M167.89 61.7556C174.735 57.8037 180.283 61.0074 180.283 68.9113C180.283 76.8152 174.735 86.4254 167.89 90.3774C161.044 94.3301 155.496 91.1256 155.496 83.2225C155.496 75.3186 161.044 65.7076 167.89 61.7556Z" fill="#D4C2FA"/>
<path d="M167.889 67.9757C170.11 66.6935 171.91 67.7332 171.91 70.2968C171.91 72.8613 170.11 75.9795 167.889 77.261C165.669 78.5432 163.869 77.5043 163.869 74.9399C163.869 72.3754 165.669 69.2579 167.889 67.9757Z" fill="#D4C2FA"/>
<path d="M175.726 81.6484C175.726 77.4356 172.768 75.7278 169.121 77.8346L166.84 79.1511C163.192 81.2571 160.234 86.3799 160.234 90.5928V91.7262C162.343 92.4265 164.998 92.0474 167.89 90.3776C170.863 88.6606 173.591 85.8742 175.726 82.6256V81.6484Z" fill="#D4C2FA"/>
<g opacity="0.699997">
<g opacity="0.699997">
<path opacity="0.699997" d="M167.889 67.9757C170.11 66.6935 171.91 67.7332 171.91 70.2968C171.91 72.8613 170.11 75.9795 167.889 77.261C165.669 78.5432 163.869 77.5043 163.869 74.9399C163.869 72.3754 165.669 69.2579 167.889 67.9757Z" fill="white"/>
</g>
</g>
<g opacity="0.699997">
<g opacity="0.699997">
<path opacity="0.699997" d="M175.726 81.6484C175.726 77.4356 172.768 75.7278 169.121 77.8346L166.84 79.1511C163.192 81.2571 160.234 86.3799 160.234 90.5928V91.7262C162.343 92.4265 164.998 92.0474 167.89 90.3776C170.863 88.6606 173.591 85.8742 175.726 82.6256V81.6484Z" fill="white"/>
</g>
</g>
<path d="M143.909 107.808L159.857 98.6004C160.587 98.1786 161.179 98.5203 161.179 99.3632V99.8895C161.179 100.732 160.587 101.757 159.857 102.178L143.909 111.385C143.18 111.807 142.588 111.465 142.588 110.623V110.096C142.588 109.254 143.18 108.229 143.909 107.808Z" fill="#D4C2FA"/>
<g opacity="0.100006">
<g opacity="0.100006">
<path opacity="0.100006" d="M143.909 107.808L159.857 98.6004C160.587 98.1786 161.179 98.5203 161.179 99.3632V99.8895C161.179 100.732 160.587 101.757 159.857 102.178L143.909 111.385C143.18 111.807 142.588 111.465 142.588 110.623V110.096C142.588 109.254 143.18 108.229 143.909 107.808Z" fill="black"/>
</g>
</g>
<path d="M143.249 118.923L191.502 91.0637C191.867 90.8532 192.162 91.0233 192.162 91.4451V97.0751C192.162 97.4962 191.867 98.0088 191.502 98.2193L143.249 126.078C142.884 126.289 142.588 126.119 142.588 125.697V120.067C142.588 119.646 142.884 119.133 143.249 118.923Z" fill="#D4C2FA"/>
<g opacity="0.19997">
<g opacity="0.199997">
<path opacity="0.199997" d="M143.249 118.923L191.502 91.0637C191.867 90.8532 192.162 91.0233 192.162 91.4451V97.0751C192.162 97.4962 191.867 98.0088 191.502 98.2193L143.249 126.078C142.884 126.289 142.588 126.119 142.588 125.697V120.067C142.588 119.646 142.884 119.133 143.249 118.923Z" fill="#F6F3FC"/>
</g>
</g>
<path d="M143.909 132.852L159.857 123.645C160.587 123.223 161.179 123.564 161.179 124.407V124.934C161.179 125.777 160.587 126.801 159.857 127.222L143.909 136.429C143.18 136.851 142.588 136.51 142.588 135.667V135.14C142.588 134.298 143.18 133.274 143.909 132.852Z" fill="#D4C2FA"/>
<g opacity="0.100006">
<g opacity="0.100006">
<path opacity="0.100006" d="M143.909 132.852L159.857 123.645C160.587 123.223 161.179 123.564 161.179 124.407V124.934C161.179 125.777 160.587 126.801 159.857 127.222L143.909 136.429C143.18 136.851 142.588 136.51 142.588 135.667V135.14C142.588 134.298 143.18 133.274 143.909 132.852Z" fill="black"/>
</g>
</g>
<path d="M143.249 143.967L191.502 116.108C191.867 115.897 192.162 116.067 192.162 116.489V122.118C192.162 122.54 191.867 123.053 191.502 123.263L143.249 151.122C142.884 151.333 142.588 151.163 142.588 150.741V145.111C142.588 144.69 142.884 144.177 143.249 143.967Z" fill="#D4C2FA"/>
<g opacity="0.199997">
<g opacity="0.199997">
<path opacity="0.199997" d="M143.249 143.967L191.502 116.108C191.867 115.897 192.162 116.067 192.162 116.489V122.118C192.162 122.54 191.867 123.053 191.502 123.263L143.249 151.122C142.884 151.333 142.588 151.163 142.588 150.741V145.111C142.588 144.69 142.884 144.177 143.249 143.967Z" fill="white"/>
</g>
</g>
<path d="M162.5 147.163L181.547 136.167C182.277 135.745 182.868 136.087 182.868 136.93V142.823C182.868 143.665 182.277 144.69 181.547 145.111L162.5 156.108C161.77 156.528 161.179 156.187 161.179 155.345V149.451C161.179 148.609 161.77 147.585 162.5 147.163Z" fill="#D4C2FA"/>
<g opacity="0.100006">
<g opacity="0.100006">
<path opacity="0.100006" d="M162.5 147.163L181.547 136.167C182.277 135.745 182.868 136.087 182.868 136.93V142.823C182.868 143.665 182.277 144.69 181.547 145.111L162.5 156.108C161.77 156.528 161.179 156.187 161.179 155.345V149.451C161.179 148.609 161.77 147.585 162.5 147.163Z" fill="black"/>
</g>
</g>
<path d="M207.655 122.312C207.655 122.312 198.284 109.386 197.713 107.848C197.281 106.689 197.743 104.963 197.85 104.162C197.956 103.361 198.111 101.576 198.245 101.08C198.478 100.213 197.355 100.39 196.725 101.178C196.079 101.986 195.873 103.561 195.551 103.821C195.231 104.079 192.727 100.442 191.42 98.7588C190.114 97.0746 189.297 96.0608 188.503 96.6848C187.931 97.1341 188.357 98.115 189.304 99.5482C190.251 100.982 190.67 101.646 190.813 101.954C190.956 102.261 190.177 102.287 189.757 102.933C189.429 103.438 189.734 104.255 189.3 104.645C188.865 105.035 188.46 105.736 188.937 106.526C189.544 107.532 190.762 108.97 192.162 109.941C193.564 110.912 194.132 111.253 194.958 112.574C195.784 113.895 203.251 127.374 203.752 128.183C204.252 128.992 205.226 130.64 206.699 130.687C208.172 130.734 220.221 120.359 220.842 119.841C222.828 118.185 223.454 117.943 223.797 119.435C223.905 119.901 223.975 120.433 224.049 121.035C224.288 122.923 225.574 129.682 225.574 129.682C225.574 129.682 231.669 132.636 236.687 131.181C241.705 129.725 243.388 127.628 243.388 127.628L240.878 123.538C241.561 121.848 244.718 115.018 245.708 110.232L229.995 107.695C229.673 107.625 229.158 107.496 228.5 107.322C227.638 107.095 225.469 106.334 223.796 107.788C218.389 112.491 207.655 122.312 207.655 122.312Z" fill="#FFAAA8"/>
<path d="M238.808 201.593L235.991 205.508C235.991 205.508 237.296 206.273 240.082 206.378C242.603 206.474 243.296 205.647 243.389 205.449C243.814 204.536 243.15 202.889 242.968 201.474L238.808 201.593Z" fill="#2B454E"/>
<path d="M236.149 203.628C236.149 203.628 232.736 203.411 230.376 203.114C228.015 202.816 226.148 203.968 226.703 204.94C227.258 205.911 228.556 206.72 230.579 207.4C232.312 207.983 234.389 208.407 236.198 208.949C238.052 209.503 239.24 210.139 240.29 209.778C241.461 209.374 241.964 208.906 241.864 208.053C241.765 207.201 240.916 204.455 240.916 204.455L236.149 203.628Z" fill="#2B454E"/>
<path d="M243.389 197.66C243.389 197.66 242.961 201.216 242.929 201.979C242.896 202.742 239.459 202.987 238.807 201.593L238.7 197.246L243.389 197.66Z" fill="#FF9090"/>
<path d="M239.922 199.848L241.152 205.242C241.152 205.242 241.269 205.9 238.458 206.318C235.648 206.738 231.243 204.849 230.493 204.465C229.742 204.081 229.653 203.317 232.412 203.47C235.171 203.623 236.149 203.629 236.149 203.629L235.253 201.237L239.922 199.848Z" fill="#FFAAA8"/>
<path d="M245.708 110.232L247.65 109.696C247.65 109.696 251.719 122.562 252.17 123.8C252.62 125.04 253.127 126.361 252.251 127.894C251.208 129.719 245.708 137.065 245.708 137.065L242.217 133.649L246.177 126.392L242.674 119.293L245.708 110.232Z" fill="#FF9090"/>
<path d="M225.71 93.5087C225.71 93.5087 224.152 91.016 225.792 87.9633C227.726 84.3676 232.048 82.6125 237.191 83.2852C239.567 83.5964 242.372 85.5469 243.91 88.5255C245.6 91.7963 245.758 98.3889 246.177 100.882L225.71 93.5087Z" fill="#2B454E"/>
<path d="M225.593 94.9166C225.593 94.9166 224.371 97.2431 224.583 97.4551C224.794 97.6664 225.609 97.838 225.609 97.838L225.593 94.9166Z" fill="#FFAAA8"/>
<path d="M229.301 87.5611C227.972 88.4276 225.685 90.0111 225.584 95.2392C225.481 100.607 226.239 102.337 227.033 102.958C227.569 103.378 230.701 103.166 232.046 102.849C233.391 102.534 237.26 100.623 238.652 97.7167C240.289 94.2987 239.958 89.2934 237.521 87.8403C234.092 85.7953 230.426 86.8281 229.301 87.5611Z" fill="#FFAAA8"/>
<path d="M243.388 127.628C245.74 131.289 247.977 134.513 248.454 138.627C249.46 147.315 246.155 157.248 245.454 163.671C245.454 163.671 247.674 166.557 247.672 169.948C247.67 172.602 243.389 197.66 243.389 197.66C243.389 197.66 240.274 198.609 238.701 197.246L235.758 151.149L237.308 145.537L243.388 127.628Z" fill="#D4C2FA"/>
<g opacity="0.199997">
<g opacity="0.199997">
<path opacity="0.199997" d="M243.388 127.628C245.74 131.289 247.977 134.513 248.454 138.627C249.46 147.315 246.155 157.248 245.454 163.671C245.454 163.671 247.674 166.557 247.672 169.948C247.67 172.602 243.389 197.66 243.389 197.66C243.389 197.66 240.274 198.609 238.701 197.246L235.758 151.149L237.308 145.537L243.388 127.628Z" fill="black"/>
</g>
</g>
<path d="M235.758 151.149L237.308 145.537C237.308 145.537 241.605 144.498 245.708 142.205C245.708 142.205 244.118 145.093 239.563 146.677L237.191 153.891L236.987 170.4L235.758 151.149Z" fill="#D4C2FA"/>
<g opacity="0.300003">
<g opacity="0.300003">
<path opacity="0.300003" d="M235.758 151.149L237.308 145.537C237.308 145.537 241.605 144.498 245.708 142.205C245.708 142.205 244.118 145.093 239.563 146.677L237.191 153.891L236.987 170.4L235.758 151.149Z" fill="black"/>
</g>
</g>
<path d="M243.388 127.628C244.647 129.683 247.655 133.195 247.016 136.57C246.24 140.66 244.039 143.535 237.308 145.537L230.994 168.402C230.994 168.402 234.282 171.478 235.287 174.405C236.291 177.331 239.923 199.848 239.923 199.848C239.923 199.848 238.8 201.681 235.254 201.237C235.254 201.237 222.889 172.996 222.015 171.178C221.142 169.359 220.576 168 220.968 165.038C221.362 162.078 225.574 129.683 225.574 129.683L243.388 127.628Z" fill="#D4C2FA"/>
<g opacity="0.199997">
<g opacity="0.199997">
<path opacity="0.199997" d="M243.388 127.628C244.647 129.683 247.655 133.195 247.016 136.57C246.24 140.66 244.039 143.535 237.308 145.537L230.994 168.402C230.994 168.402 234.282 171.478 235.287 174.405C236.291 177.331 239.923 199.848 239.923 199.848C239.923 199.848 238.8 201.681 235.254 201.237C235.254 201.237 222.889 172.996 222.015 171.178C221.142 169.359 220.576 168 220.968 165.038C221.362 162.078 225.574 129.683 225.574 129.683L243.388 127.628Z" fill="#F6F3FC"/>
</g>
</g>
<path d="M245.708 110.232L229.995 107.695C229.674 107.625 229.155 107.495 228.499 107.322L228.497 107.321C228.497 107.321 227.827 117.173 223.797 119.434H223.796C223.891 119.904 223.975 120.433 224.049 121.035C224.288 122.923 225.574 129.683 225.574 129.683C225.574 129.683 231.669 132.636 236.687 131.18C241.705 129.725 243.388 127.629 243.388 127.629L240.878 123.537C241.561 121.848 244.717 115.019 245.708 110.232Z" fill="#D4C2FA"/>
<g opacity="0.699997">
<g opacity="0.699997">
<path opacity="0.699997" d="M245.708 110.232L229.995 107.695C229.674 107.625 229.155 107.495 228.499 107.322L228.497 107.321C228.497 107.321 227.827 117.173 223.797 119.434C223.892 119.904 223.975 120.433 224.049 121.035C224.288 122.923 225.574 129.683 225.574 129.683C225.574 129.683 231.669 132.636 236.687 131.18C241.705 129.725 243.388 127.629 243.388 127.629L240.878 123.537C241.561 121.848 244.717 115.019 245.708 110.232Z" fill="white"/>
</g>
</g>
<path d="M241.563 121.928C241.499 122.076 236.512 124.748 235.03 125.157C237.366 125.042 239.307 124.493 240.878 123.537L241.563 121.928Z" fill="#D4C2FA"/>
<path d="M228.909 87.8243C228.909 87.8243 228.177 92.7846 229.951 95.6939C229.951 95.6939 230.616 93.7198 232.294 94.0966C233.983 94.4765 234.053 96.6694 232.881 97.9128C231.708 99.1561 230.403 98.7068 230.403 98.7068C230.403 98.7068 230.139 102.292 229.998 105.298C229.861 108.194 229.053 114.854 232.436 117.532C235.819 120.21 244.296 121.114 248.269 115.56C250.48 112.47 247.543 107.007 246.178 100.882C244.921 95.2507 244.214 86.9044 238.239 85.5657C232.264 84.2271 228.909 87.8243 228.909 87.8243Z" fill="#2B454E"/>
<path d="M250.829 20.078L249.569 20.8057C249.669 20.342 249.741 19.8812 249.741 19.4388C249.741 16.8866 247.95 15.8522 245.739 17.1284C245.096 17.4998 244.498 18.0361 243.96 18.6577C243.96 18.6516 243.961 18.6455 243.961 18.6387C243.961 15.2039 241.549 13.8111 238.575 15.5288C235.599 17.2466 233.187 21.4236 233.187 24.8591C233.187 25.0346 233.198 25.2001 233.21 25.3641C232.581 25.2519 231.83 25.406 231.022 25.8729C228.812 27.149 227.02 30.2512 227.02 32.8034C227.02 33.1551 227.057 33.4739 227.122 33.7653L226.45 34.1528C224.626 35.2062 223.147 37.2611 223.147 38.7432C223.147 40.2253 224.626 40.5723 226.45 39.5197L250.829 25.4449C252.653 24.3915 254.132 22.3359 254.132 20.8545C254.132 19.3725 252.653 19.0246 250.829 20.078Z" fill="#ECECEC"/>
</g>
<defs>
<filter id="filter0_ddddd_104_79" x="0" y="0" width="285.177" height="279" filterUnits="userSpaceOnUse" color-interpolation-filters="sRGB">
<feFlood flood-opacity="0" result="BackgroundImageFix"/>
<feColorMatrix in="SourceAlpha" type="matrix" values="0 0 0 0 0 0 0 0 0 0 0 0 0 0 0 0 0 0 127 0" result="hardAlpha"/>
<feOffset/>
<feColorMatrix type="matrix" values="0 0 0 0 0 0 0 0 0 0 0 0 0 0 0 0 0 0 0.1 0"/>
<feBlend mode="normal" in2="BackgroundImageFix" result="effect1_dropShadow_104_79"/>
<feColorMatrix in="SourceAlpha" type="matrix" values="0 0 0 0 0 0 0 0 0 0 0 0 0 0 0 0 0 0 127 0" result="hardAlpha"/>
<feOffset dy="1"/>
<feGaussianBlur stdDeviation="1.5"/>
<feColorMatrix type="matrix" values="0 0 0 0 0 0 0 0 0 0 0 0 0 0 0 0 0 0 0.1 0"/>
<feBlend mode="normal" in2="effect1_dropShadow_104_79" result="effect2_dropShadow_104_79"/>
<feColorMatrix in="SourceAlpha" type="matrix" values="0 0 0 0 0 0 0 0 0 0 0 0 0 0 0 0 0 0 127 0" result="hardAlpha"/>
<feOffset dy="5"/>
<feGaussianBlur stdDeviation="2.5"/>
<feColorMatrix type="matrix" values="0 0 0 0 0 0 0 0 0 0 0 0 0 0 0 0 0 0 0.09 0"/>
<feBlend mode="normal" in2="effect2_dropShadow_104_79" result="effect3_dropShadow_104_79"/>
<feColorMatrix in="SourceAlpha" type="matrix" values="0 0 0 0 0 0 0 0 0 0 0 0 0 0 0 0 0 0 127 0" result="hardAlpha"/>
<feOffset dy="11"/>
<feGaussianBlur stdDeviation="3"/>
<feColorMatrix type="matrix" values="0 0 0 0 0 0 0 0 0 0 0 0 0 0 0 0 0 0 0.05 0"/>
<feBlend mode="normal" in2="effect3_dropShadow_104_79" result="effect4_dropShadow_104_79"/>
<feColorMatrix in="SourceAlpha" type="matrix" values="0 0 0 0 0 0 0 0 0 0 0 0 0 0 0 0 0 0 127 0" result="hardAlpha"/>
<feOffset dy="19"/>
<feGaussianBlur stdDeviation="4"/>
<feColorMatrix type="matrix" values="0 0 0 0 0 0 0 0 0 0 0 0 0 0 0 0 0 0 0.01 0"/>
<feBlend mode="normal" in2="effect4_dropShadow_104_79" result="effect5_dropShadow_104_79"/>
<feBlend mode="normal" in="SourceGraphic" in2="effect5_dropShadow_104_79" result="shape"/>
</filter>
</defs>
</svg>
