<svg width="316" height="269" viewBox="0 0 316 269" fill="none" xmlns="http://www.w3.org/2000/svg">
<g clip-path="url(#clip0_104_13)" filter="url(#filter0_ddddd_104_13)">
<path d="M150.276 57.1077C141.106 54.8251 133.234 50.3384 127.079 42.9318C126.61 42.6443 126.274 42.1825 126.144 41.6476C126.015 41.1128 126.104 40.5485 126.39 40.0787L137.096 22.5595C137.383 22.0903 137.845 21.7543 138.38 21.6252C138.915 21.496 139.479 21.5844 139.949 21.8708L163.147 36.0466C163.616 36.3341 163.952 36.7959 164.081 37.3308C164.21 37.8657 164.122 38.4299 163.835 38.8998L153.129 56.419C152.842 56.8881 152.38 57.2242 151.845 57.3533C151.31 57.4824 150.746 57.3941 150.276 57.1077Z" fill="#E6E6E6"/>
<path d="M144.091 51.4821C139.263 50.955 134.245 47.0961 129.177 42.3686C128.738 42.0994 128.423 41.6668 128.302 41.1659C128.181 40.665 128.264 40.1365 128.532 39.6965L137.733 24.6402C138.002 24.2008 138.435 23.8861 138.936 23.7652C139.437 23.6442 139.965 23.7269 140.405 23.9951L161.048 36.6097C161.487 36.879 161.802 37.3115 161.923 37.8124C162.044 38.3134 161.961 38.8419 161.693 39.2819L155.993 48.6089C154.794 50.5662 152.867 51.968 150.636 52.5066C148.405 53.0453 146.051 52.6768 144.091 51.4821Z" fill="white"/>
<path d="M188.874 84.9835C179.704 82.701 171.831 78.2143 165.676 70.8077C165.207 70.5202 164.871 70.0584 164.742 69.5235C164.613 68.9886 164.701 68.4244 164.987 67.9545L175.693 50.4353C175.981 49.9661 176.443 49.6301 176.978 49.501C177.512 49.3719 178.077 49.4602 178.547 49.7466L201.744 63.9225C202.213 64.2099 202.549 64.6718 202.678 65.2066C202.807 65.7415 202.719 66.3058 202.433 66.7756L191.727 84.2948C191.439 84.764 190.977 85.1 190.443 85.2291C189.908 85.3582 189.343 85.2699 188.874 84.9835Z" fill="#E6E6E6"/>
<path d="M182.688 79.358C177.86 78.8309 172.842 74.972 167.775 70.2444C167.335 69.9752 167.021 69.5427 166.9 69.0418C166.779 68.5408 166.862 68.0124 167.13 67.5724L176.331 52.5161C176.6 52.0767 177.032 51.762 177.533 51.641C178.034 51.5201 178.563 51.6028 179.003 51.871L199.645 64.4856C200.085 64.7548 200.399 65.1874 200.52 65.6883C200.641 66.1893 200.558 66.7177 200.29 67.1577L194.59 76.4848C193.391 78.4421 191.465 79.8439 189.233 80.3825C187.002 80.9211 184.648 80.5527 182.688 79.358Z" fill="white"/>
<path d="M158.424 96.134C149.255 93.8514 141.382 89.3647 135.227 81.9581C134.758 81.6706 134.422 81.2088 134.293 80.6739C134.164 80.139 134.252 79.5748 134.538 79.1049L145.244 61.5857C145.532 61.1165 145.993 60.7805 146.528 60.6514C147.063 60.5223 147.627 60.6106 148.097 60.897L171.295 75.0729C171.764 75.3603 172.1 75.8222 172.229 76.357C172.358 76.8919 172.27 77.4562 171.984 77.926L161.278 95.4452C160.99 95.9144 160.528 96.2504 159.993 96.3796C159.459 96.5087 158.894 96.4203 158.424 96.134Z" fill="#E6E6E6"/>
<path d="M152.239 90.5084C147.411 89.9813 142.393 86.1224 137.326 81.3948C136.886 81.1256 136.571 80.6931 136.451 80.1922C136.33 79.6912 136.412 79.1628 136.681 78.7228L145.881 63.6665C146.151 63.2271 146.583 62.9123 147.084 62.7914C147.585 62.6705 148.114 62.7532 148.554 63.0214L169.196 75.636C169.636 75.9052 169.95 76.3378 170.071 76.8387C170.192 77.3397 170.109 77.8681 169.841 78.3081L164.141 87.6352C162.942 89.5925 161.016 90.9943 158.784 91.5329C156.553 92.0716 154.199 91.7031 152.239 90.5084Z" fill="white"/>
<path d="M43.9533 214.627C43.7067 214.638 43.4626 214.573 43.254 214.441C43.0454 214.309 42.8825 214.116 42.7872 213.888C42.692 213.661 42.6691 213.409 42.7216 213.168C42.7741 212.927 42.8995 212.707 43.0807 212.54L43.1632 212.212C43.1524 212.186 43.1414 212.159 43.1305 212.133C42.882 211.546 42.4657 211.046 41.9339 210.695C41.402 210.344 40.7783 210.158 40.1411 210.161C39.5038 210.163 38.8815 210.354 38.3523 210.708C37.823 211.063 37.4105 211.567 37.1664 212.155C36.191 214.505 34.949 216.858 34.6433 219.342C34.5086 220.44 34.5654 221.553 34.8112 222.632C32.5201 217.634 31.3304 212.202 31.3228 206.704C31.3223 205.325 31.3989 203.946 31.5524 202.575C31.6792 201.451 31.8551 200.335 32.0801 199.227C33.3081 193.216 35.9445 187.581 39.773 182.786C41.626 181.775 43.1245 180.22 44.0667 178.331C44.408 177.652 44.6492 176.927 44.7829 176.179C44.5739 176.207 43.9947 173.023 44.1524 172.828C43.8611 172.386 43.3397 172.166 43.0216 171.735C41.4393 169.59 39.2594 169.964 38.1214 172.879C35.6903 174.106 35.6668 176.141 37.1584 178.098C38.1075 179.343 38.2379 181.028 39.0706 182.361C38.9849 182.471 38.8958 182.577 38.8101 182.687C37.2441 184.7 35.8792 186.863 34.735 189.143C35.0133 186.588 34.6812 184.005 33.766 181.604C32.8385 179.366 31.1001 177.482 29.5692 175.548C27.7303 173.224 23.9596 174.238 23.6356 177.183C23.6325 177.212 23.6294 177.24 23.6264 177.269C23.8538 177.397 24.0764 177.533 24.2942 177.677C24.5678 177.86 24.7798 178.121 24.9024 178.427C25.025 178.732 25.0526 179.067 24.9814 179.389C24.9102 179.71 24.7437 180.002 24.5035 180.227C24.2634 180.452 23.9609 180.599 23.6357 180.649L23.6024 180.655C23.6834 181.474 23.8266 182.286 24.0308 183.084C22.0668 190.679 26.3069 193.446 32.3611 193.57C32.4947 193.638 32.625 193.707 32.7586 193.772C31.609 197.03 30.8879 200.423 30.6135 203.867C30.4581 205.899 30.4673 207.94 30.6409 209.97L30.6306 209.898C30.192 207.64 28.9876 205.603 27.221 204.131C24.5972 201.976 20.8902 201.182 18.0595 199.449C17.7586 199.256 17.4089 199.153 17.0514 199.152C16.6939 199.151 16.3436 199.253 16.0418 199.444C15.74 199.636 15.4994 199.91 15.3482 200.234C15.197 200.558 15.1416 200.918 15.1886 201.273C15.1924 201.298 15.1962 201.323 15.2002 201.348C15.6221 201.52 16.033 201.718 16.4304 201.941C16.6577 202.07 16.8803 202.206 17.0981 202.35C17.3717 202.532 17.5837 202.794 17.7063 203.099C17.829 203.404 17.8565 203.74 17.7853 204.061C17.7141 204.382 17.5476 204.674 17.3075 204.899C17.0673 205.124 16.7649 205.272 16.4397 205.322L16.4063 205.327C16.3824 205.33 16.3618 205.334 16.3378 205.337C17.0588 207.059 18.0708 208.643 19.3293 210.021C20.5573 216.652 25.8317 217.281 31.4736 215.35H31.477C32.096 218.04 32.993 220.658 34.1533 223.163H43.7138C43.7481 223.057 43.7789 222.947 43.8097 222.841C42.9248 222.896 42.0364 222.843 41.1643 222.683C41.8736 221.813 42.583 220.935 43.2923 220.065C43.3081 220.049 43.323 220.032 43.3369 220.014C43.6967 219.568 44.0599 219.126 44.4197 218.681L44.4199 218.68C44.4391 217.315 44.2824 215.952 43.9537 214.627L43.9533 214.627Z" fill="#F2F2F2"/>
<path d="M110.388 55.5392C111.629 55.5392 112.635 54.5369 112.635 53.3005C112.635 52.0641 111.629 51.0618 110.388 51.0618C109.147 51.0618 108.141 52.0641 108.141 53.3005C108.141 54.5369 109.147 55.5392 110.388 55.5392Z" fill="#E6E6E6"/>
<path d="M35.8271 212.282L39.5934 214.731L50.8304 201.37L45.2723 197.756L35.8271 212.282Z" fill="#FFB6B6"/>
<path d="M33.1401 216.125L44.7208 223.655L44.816 223.508C45.5933 222.313 45.8639 220.858 45.5683 219.463C45.2727 218.068 44.4351 216.847 43.2397 216.07L43.2394 216.07L42.1677 213.089L37.1773 212.128L36.1664 211.47L33.1401 216.125Z" fill="#2F2E41"/>
<path d="M100.366 218.699L104.858 218.698L106.995 201.372L100.365 201.372L100.366 218.699Z" fill="#FFB6B6"/>
<path d="M100.208 223.385L114.022 223.384V223.209C114.022 221.783 113.455 220.416 112.447 219.408C111.438 218.399 110.071 217.833 108.645 217.833H108.645L106.121 215.918L101.414 217.833L100.208 217.833L100.208 223.385Z" fill="#2F2E41"/>
<path d="M53.8694 111.782L94.1514 112.668L98.1442 117.659C98.1442 117.659 97.7989 115.899 98.1062 117.832C98.4136 119.765 106.185 158.3 104.716 159.593C103.247 160.885 107.501 169.808 107.814 170.352C108.126 170.896 111.494 197.756 107.814 199.965L106.431 209.34H99.9983C99.9983 209.34 93.554 201.883 94.8509 200.531C96.1478 199.179 92.4386 194.683 92.2968 192.273C92.155 189.862 90.8007 178.929 91.85 177.176C92.8993 175.423 94.3178 168.844 91.6559 166.293C88.994 163.743 76.5793 132.401 76.5793 132.401C76.5793 132.401 72.9717 169.144 72.9802 172.029C72.9912 175.781 70.5273 173.924 70.5273 177.218C70.5273 177.884 62.5044 194.988 57.1123 200.334L45.962 208.911L40.8157 205.052V199.476C40.8157 199.476 45.5849 189.132 47.2486 187.468C48.9122 185.805 55.0551 180.712 55.0551 178.383C55.0551 176.054 57.9469 175.242 56.0019 172.154C54.057 169.066 54.7224 167.735 55.3879 166.405C56.0534 165.074 54.7914 110.542 54.7914 110.542L53.8694 111.782Z" fill="#FE4764"/>
<path d="M61.4963 35.7063L78.9739 34.8666L83.4463 42.2038C83.4463 42.2038 96.5093 43.5149 94.6413 48.4281C92.7733 53.3412 89.8899 87.0298 92.5308 91.2428C93.9244 93.4659 96.2834 100.906 98.2009 107.438C98.5721 108.705 98.6377 110.042 98.3921 111.339C98.1466 112.636 97.597 113.856 96.7884 114.9C95.9798 115.943 94.9352 116.78 93.7405 117.341C92.5458 117.903 91.235 118.173 89.9156 118.13C77.4843 117.72 59.0219 116.748 56.838 114.564C53.5107 111.237 50.5161 108.575 52.5125 107.577C54.5089 106.579 57.3644 92.1005 57.3644 92.1005C57.3644 92.1005 44.1087 50.3458 47.5685 49.1159C51.0282 47.8859 60.6867 42.2038 60.6867 42.2038L61.4963 35.7063Z" fill="#3F3D56"/>
<path d="M70.6659 30.923C77.3885 30.923 82.8382 25.4733 82.8382 18.7507C82.8382 12.0281 77.3885 6.57837 70.6659 6.57837C63.9434 6.57837 58.4937 12.0281 58.4937 18.7507C58.4937 25.4733 63.9434 30.923 70.6659 30.923Z" fill="#FFB6B6"/>
<path d="M7.50784 223.85L142.752 223.982C142.887 223.981 143.016 223.927 143.111 223.831C143.206 223.736 143.26 223.606 143.26 223.471C143.26 223.336 143.206 223.207 143.111 223.111C143.016 223.015 142.887 222.961 142.752 222.961L7.50784 222.829C7.37285 222.83 7.24363 222.884 7.14842 222.979C7.05321 223.075 6.99976 223.204 6.99976 223.339C6.99976 223.474 7.05321 223.604 7.14842 223.7C7.24363 223.795 7.37285 223.849 7.50784 223.85Z" fill="#CACACA"/>
<path d="M60.9416 116.435L57.5153 106.12L51.3501 107.256L55.3607 118.032C55.1168 118.663 55.0539 119.35 55.1791 120.015C55.3042 120.68 55.6124 121.297 56.0691 121.797C56.5257 122.296 57.1126 122.659 57.7639 122.843C58.4151 123.027 59.1049 123.026 59.7556 122.84C60.4063 122.654 60.9922 122.29 61.4474 121.789C61.9025 121.288 62.209 120.67 62.3322 120.005C62.4554 119.339 62.3906 118.652 62.1449 118.022C61.8993 117.391 61.4825 116.841 60.9416 116.435Z" fill="#FFB6B6"/>
<path d="M48.5638 49.2053L48.4012 49.273C46.8896 49.9034 45.5543 50.8928 44.5111 52.1554C43.4679 53.418 42.7481 54.9159 42.4142 56.5194C41.5403 60.7021 40.6805 66.7518 41.3603 72.4167C42.5608 82.4216 43.3612 86.8237 44.962 90.0253C46.5628 93.2268 46.963 92.0262 46.5628 94.4274C46.1626 96.8286 44.1616 94.8276 46.1626 98.0292C48.1636 101.231 49.3642 100.43 48.5638 102.031C47.7634 103.632 46.5628 103.632 48.1636 105.633C49.7643 107.634 49.7643 108.434 50.1645 109.235C50.5647 110.035 51.7653 116.038 51.7653 116.038C51.7653 116.038 58.1685 114.037 61.7702 114.837C61.7702 114.837 58.5686 109.235 59.369 108.034C60.1694 106.833 61.37 106.433 60.1694 105.233C58.9688 104.032 56.9678 104.432 58.9688 103.232C60.9698 102.031 57.368 89.6251 57.368 89.6251L48.5638 49.2053Z" fill="#3F3D56"/>
<path d="M144.828 71.9984L134.292 69.3314L131.928 75.1377L143.168 77.561C143.569 78.1065 144.114 78.5294 144.742 78.7821C145.37 79.0348 146.056 79.1074 146.723 78.9917C147.389 78.8759 148.011 78.5765 148.517 78.1269C149.023 77.6774 149.393 77.0957 149.587 76.4471C149.78 75.7985 149.789 75.1088 149.612 74.4555C149.435 73.8023 149.08 73.2113 148.585 72.7491C148.091 72.2869 147.477 71.9717 146.813 71.8391C146.15 71.7065 145.462 71.7616 144.828 71.9984H144.828Z" fill="#FFB6B6"/>
<path d="M81.5132 46.2263L81.4827 46.3998C81.1999 48.013 81.3145 49.6709 81.8167 51.2299C82.3189 52.7888 83.1934 54.2019 84.3647 55.3467C87.4186 58.3354 92.0534 62.3176 97.1928 64.7953C106.27 69.1711 110.41 70.8672 113.97 71.2423C117.53 71.6175 116.733 70.6337 118.541 72.2639C120.349 73.8942 117.586 74.5028 121.361 74.5407C125.136 74.5786 125.108 73.1359 126.026 74.6723C126.944 76.2088 126.297 77.2204 128.845 76.9491C131.394 76.6777 132.068 77.1087 132.958 77.2025C133.848 77.2963 139.553 79.5171 139.553 79.5171C139.553 79.5171 141.315 73.0441 143.928 70.4402C143.928 70.4402 137.483 70.1209 136.903 68.8C136.322 67.479 136.631 66.2519 134.973 66.617C133.315 66.9822 132.575 68.8838 132.641 66.5512C132.706 64.2186 89.529 43.2106 89.529 43.2106L81.5132 46.2263Z" fill="#3F3D56"/>
<path d="M85.2403 16.6212C83.928 17.0286 82.6628 17.2688 81.8094 16.1923C80.956 15.1159 81.179 13.8851 79.9096 13.3661C78.8479 13.0102 77.6916 13.0637 76.6674 13.5163C76.483 13.5849 76.3029 13.6621 76.127 13.7393C76.0284 13.6535 75.9298 13.572 75.8225 13.4948C75.0157 12.921 74.0195 12.6785 73.0392 12.8172C73.7558 13.1633 74.3454 13.7259 74.7247 14.4254C74.373 14.6013 74.017 14.7771 73.6568 14.9272C72.1429 15.5465 70.5056 15.8046 68.8746 15.681C67.2436 15.5574 65.6638 15.0556 64.2605 14.2153C65.6671 17.9206 64.5735 19.2415 62.5107 22.6252L62.4293 22.8225C62.6351 21.9348 59.9376 20.9098 59.9376 22.1964C60.0561 23.5145 60.3444 24.8118 60.7953 26.0561C58.1492 22.072 56.5882 17.4103 57.6132 12.9373C57.8319 11.9981 57.9305 10.9903 58.5266 10.2269C59.1228 9.46782 60.2206 9.02181 61.0869 9.45067C61.1943 7.9962 61.6938 6.59801 62.5323 5.40475C63.3709 4.21149 64.5171 3.26776 65.8491 2.67389C67.1812 2.08001 68.6492 1.85819 70.0973 2.03202C71.5453 2.20584 72.9192 2.76881 74.0728 3.66107C75.1449 4.48877 75.9898 5.57378 76.9461 6.53871C77.9025 7.50364 79.0347 8.38281 80.3727 8.62297C81.2219 8.77307 82.1782 8.68301 82.8558 9.21908C83.6406 9.84093 83.6492 10.9345 83.6449 11.9852C82.877 11.9633 82.12 12.1709 81.4706 12.5813C82.2655 12.6013 83.0339 12.8714 83.6664 13.3533C83.6786 13.3608 83.6901 13.3694 83.7007 13.379C83.9323 15.1459 83.8379 15.519 85.2403 16.6212Z" fill="#2F2E41"/>
<path d="M141.283 24.4774C142.524 24.4774 143.53 23.4751 143.53 22.2387C143.53 21.0023 142.524 20 141.283 20C140.042 20 139.036 21.0023 139.036 22.2387C139.036 23.4751 140.042 24.4774 141.283 24.4774Z" fill="#E6E6E6"/>
<path d="M165.452 27.1085C166.693 27.1085 167.699 26.1062 167.699 24.8698C167.699 23.6334 166.693 22.6311 165.452 22.6311C164.211 22.6311 163.205 23.6334 163.205 24.8698C163.205 26.1062 164.211 27.1085 165.452 27.1085Z" fill="#E6E6E6"/>
<path d="M183.161 43.7678C184.402 43.7678 185.408 42.7655 185.408 41.5291C185.408 40.2927 184.402 39.2904 183.161 39.2904C181.92 39.2904 180.914 40.2927 180.914 41.5291C180.914 42.7655 181.92 43.7678 183.161 43.7678Z" fill="#E6E6E6"/>
<path d="M174.853 88.8578C176.094 88.8578 177.1 87.8555 177.1 86.6191C177.1 85.3827 176.094 84.3804 174.853 84.3804C173.612 84.3804 172.606 85.3827 172.606 86.6191C172.606 87.8555 173.612 88.8578 174.853 88.8578Z" fill="#E6E6E6"/>
<path d="M153.079 99.1935C154.32 99.1935 155.326 98.1913 155.326 96.9549C155.326 95.7185 154.32 94.7162 153.079 94.7162C151.838 94.7162 150.832 95.7185 150.832 96.9549C150.832 98.1913 151.838 99.1935 153.079 99.1935Z" fill="#E6E6E6"/>
<path d="M130.329 94.9959C131.57 94.9959 132.576 93.9936 132.576 92.7572C132.576 91.5208 131.57 90.5186 130.329 90.5186C129.088 90.5186 128.082 91.5208 128.082 92.7572C128.082 93.9936 129.088 94.9959 130.329 94.9959Z" fill="#E6E6E6"/>
<path d="M114.616 78.3366C115.857 78.3366 116.863 77.3343 116.863 76.0979C116.863 74.8615 115.857 73.8593 114.616 73.8593C113.375 73.8593 112.369 74.8615 112.369 76.0979C112.369 77.3343 113.375 78.3366 114.616 78.3366Z" fill="#E6E6E6"/>
<path d="M120.218 35.1112C121.459 35.1112 122.465 34.1089 122.465 32.8725C122.465 31.6361 121.459 30.6338 120.218 30.6338C118.977 30.6338 117.971 31.6361 117.971 32.8725C117.971 34.1089 118.977 35.1112 120.218 35.1112Z" fill="#E6E6E6"/>
<path d="M126.959 56.0989C128.2 56.0989 129.206 55.0966 129.206 53.8602C129.206 52.6238 128.2 51.6215 126.959 51.6215C125.718 51.6215 124.712 52.6238 124.712 53.8602C124.712 55.0966 125.718 56.0989 126.959 56.0989Z" fill="#E6E6E6"/>
<path d="M162.628 46.8642C163.869 46.8642 164.875 45.8619 164.875 44.6255C164.875 43.3891 163.869 42.3868 162.628 42.3868C161.387 42.3868 160.381 43.3891 160.381 44.6255C160.381 45.8619 161.387 46.8642 162.628 46.8642Z" fill="#E6E6E6"/>
<path d="M167.964 67.2922C169.205 67.2922 170.211 66.2899 170.211 65.0535C170.211 63.8171 169.205 62.8148 167.964 62.8148C166.723 62.8148 165.718 63.8171 165.718 65.0535C165.718 66.2899 166.723 67.2922 167.964 67.2922Z" fill="#E6E6E6"/>
<path d="M183.693 72.0495C187.26 72.0495 190.153 69.1679 190.153 65.6132C190.153 62.0586 187.26 59.177 183.693 59.177C180.125 59.177 177.233 62.0586 177.233 65.6132C177.233 69.1679 180.125 72.0495 183.693 72.0495Z" fill="#3B55E6"/>
<path d="M151.674 84.0824C155.242 84.0824 158.134 81.2008 158.134 77.6462C158.134 74.0916 155.242 71.21 151.674 71.21C148.107 71.21 145.215 74.0916 145.215 77.6462C145.215 81.2008 148.107 84.0824 151.674 84.0824Z" fill="#3B55E6"/>
<path d="M143.53 44.6256C147.097 44.6256 149.989 41.744 149.989 38.1894C149.989 34.6348 147.097 31.7532 143.53 31.7532C139.962 31.7532 137.07 34.6348 137.07 38.1894C137.07 41.744 139.962 44.6256 143.53 44.6256Z" fill="#3B55E6"/>
<path d="M149.264 35.6313C159.742 32.3752 170.959 35.8965 181.494 32.891C183.917 32.2282 186.208 31.1523 188.265 29.7109C190.02 28.3801 191.668 26.9137 193.194 25.325C196.363 22.1904 199.805 18.899 204.566 18.9353C210.836 18.9831 215.651 23.6407 219.83 27.7533C220.421 28.3346 221.331 27.4255 220.74 26.8436C216.899 23.0645 212.75 19.0776 207.284 17.9496C204.832 17.4057 202.272 17.6184 199.943 18.5594C197.923 19.4774 196.077 20.7394 194.489 22.2891C192.805 23.8329 191.253 25.5138 189.546 27.0331C187.765 28.6536 185.713 29.9487 183.484 30.8596C178.654 32.7827 173.356 33.0147 168.219 32.9588C161.771 32.8885 155.169 32.4494 148.922 34.3907C148.133 34.6356 148.47 35.878 149.264 35.6313V35.6313Z" fill="#3F3D56"/>
<path d="M222.128 19.0825L225.349 24.7605L226.907 27.5079C227.184 27.9962 227.469 28.4809 227.738 28.9732C227.904 29.2756 228.266 29.8211 227.92 30.1076C227.617 30.2559 227.276 30.3092 226.941 30.2604C226.374 30.2616 225.805 30.2489 225.238 30.2431L222.043 30.2108L215.442 30.1439C215.275 30.1496 215.117 30.2199 215.001 30.34C214.885 30.46 214.82 30.6203 214.82 30.7871C214.82 30.954 214.885 31.1143 215.001 31.2344C215.117 31.3544 215.275 31.4247 215.442 31.4304C219.274 31.4693 223.109 31.5502 226.941 31.5469C227.61 31.6109 228.279 31.4279 228.822 31.0324C229.088 30.7678 229.264 30.4263 229.325 30.0562C229.386 29.6861 229.33 29.3061 229.163 28.97C228.785 28.1455 228.351 27.3481 227.862 26.5838L226.46 24.1111L223.239 18.4331C223.149 18.292 223.009 18.191 222.847 18.1514C222.685 18.1118 222.513 18.1368 222.369 18.221C222.225 18.3053 222.119 18.4422 222.074 18.6029C222.029 18.7636 222.048 18.9356 222.128 19.0825V19.0825Z" fill="#3F3D56"/>
<path d="M264.7 32.9955H235.096C234.934 32.9961 234.773 32.9647 234.623 32.9029C234.472 32.8412 234.336 32.7504 234.221 32.6358C234.106 32.5212 234.015 32.385 233.952 32.2351C233.89 32.0851 233.858 31.9244 233.858 31.762C233.858 31.5996 233.89 31.4388 233.952 31.2889C234.015 31.1389 234.106 31.0027 234.221 30.8881C234.336 30.7735 234.472 30.6827 234.623 30.621C234.773 30.5593 234.934 30.5278 235.096 30.5285H264.7C264.863 30.5278 265.024 30.5593 265.174 30.621C265.324 30.6827 265.461 30.7735 265.576 30.8881C265.691 31.0027 265.782 31.1389 265.844 31.2889C265.907 31.4388 265.939 31.5996 265.939 31.762C265.939 31.9244 265.907 32.0851 265.844 32.2351C265.782 32.385 265.691 32.5212 265.576 32.6358C265.461 32.7504 265.324 32.8412 265.174 32.9029C265.024 32.9647 264.863 32.9961 264.7 32.9955H264.7Z" fill="#3B55E6"/>
<path d="M264.7 52.8638H235.096C234.934 52.8644 234.773 52.8329 234.623 52.7712C234.472 52.7095 234.336 52.6187 234.221 52.5041C234.106 52.3895 234.015 52.2533 233.952 52.1034C233.89 51.9534 233.858 51.7926 233.858 51.6303C233.858 51.4679 233.89 51.3071 233.952 51.1571C234.015 51.0072 234.106 50.871 234.221 50.7564C234.336 50.6418 234.472 50.551 234.623 50.4893C234.773 50.4276 234.934 50.3961 235.096 50.3967H264.7C264.863 50.3961 265.024 50.4276 265.174 50.4893C265.324 50.551 265.461 50.6418 265.576 50.7564C265.691 50.871 265.782 51.0072 265.844 51.1571C265.907 51.3071 265.939 51.4679 265.939 51.6303C265.939 51.7926 265.907 51.9534 265.844 52.1034C265.782 52.2533 265.691 52.3895 265.576 52.5041C265.461 52.6187 265.324 52.7095 265.174 52.7712C265.024 52.8329 264.863 52.8644 264.7 52.8638H264.7Z" fill="#E6E6E6"/>
<path d="M293.762 42.9296H235.096C234.934 42.9302 234.773 42.8987 234.623 42.837C234.472 42.7753 234.336 42.6845 234.221 42.5699C234.106 42.4553 234.015 42.3191 233.952 42.1692C233.89 42.0192 233.858 41.8584 233.858 41.6961C233.858 41.5337 233.89 41.3729 233.952 41.2229C234.015 41.073 234.106 40.9368 234.221 40.8222C234.336 40.7076 234.472 40.6168 234.623 40.5551C234.773 40.4934 234.934 40.4619 235.096 40.4625H293.762C293.925 40.4619 294.085 40.4934 294.236 40.5551C294.386 40.6168 294.522 40.7076 294.637 40.8222C294.752 40.9368 294.844 41.073 294.906 41.2229C294.968 41.3729 295 41.5337 295 41.6961C295 41.8584 294.968 42.0192 294.906 42.1692C294.844 42.3191 294.752 42.4553 294.637 42.5699C294.522 42.6845 294.386 42.7753 294.236 42.837C294.085 42.8987 293.925 42.9302 293.762 42.9296Z" fill="#E6E6E6"/>
<path d="M251.219 93.9996H221.615C221.452 94.0002 221.291 93.9688 221.141 93.9071C220.991 93.8453 220.854 93.7546 220.739 93.64C220.624 93.5254 220.533 93.3892 220.471 93.2392C220.409 93.0893 220.376 92.9285 220.376 92.7661C220.376 92.6037 220.409 92.443 220.471 92.293C220.533 92.1431 220.624 92.0069 220.739 91.8923C220.854 91.7777 220.991 91.6869 221.141 91.6252C221.291 91.5635 221.452 91.532 221.615 91.5326H251.219C251.381 91.532 251.542 91.5635 251.693 91.6252C251.843 91.6869 251.979 91.7777 252.094 91.8923C252.209 92.0069 252.301 92.1431 252.363 92.293C252.425 92.443 252.457 92.6037 252.457 92.7661C252.457 92.9285 252.425 93.0893 252.363 93.2392C252.301 93.3892 252.209 93.5254 252.094 93.64C251.979 93.7546 251.843 93.8453 251.693 93.9071C251.542 93.9688 251.381 94.0002 251.219 93.9996Z" fill="#3B55E6"/>
<path d="M251.219 113.868H221.615C221.452 113.869 221.291 113.837 221.141 113.775C220.991 113.714 220.854 113.623 220.739 113.508C220.624 113.394 220.533 113.258 220.471 113.108C220.409 112.958 220.376 112.797 220.376 112.634C220.376 112.472 220.409 112.311 220.471 112.161C220.533 112.011 220.624 111.875 220.739 111.761C220.854 111.646 220.991 111.555 221.141 111.493C221.291 111.432 221.452 111.4 221.615 111.401H251.219C251.381 111.4 251.542 111.432 251.693 111.493C251.843 111.555 251.979 111.646 252.094 111.761C252.209 111.875 252.301 112.011 252.363 112.161C252.425 112.311 252.457 112.472 252.457 112.634C252.457 112.797 252.425 112.958 252.363 113.108C252.301 113.258 252.209 113.394 252.094 113.508C251.979 113.623 251.843 113.714 251.693 113.775C251.542 113.837 251.381 113.869 251.219 113.868Z" fill="#E6E6E6"/>
<path d="M280.281 103.934H221.615C221.452 103.934 221.291 103.903 221.141 103.841C220.991 103.779 220.854 103.689 220.739 103.574C220.624 103.459 220.533 103.323 220.471 103.173C220.409 103.023 220.376 102.863 220.376 102.7C220.376 102.538 220.409 102.377 220.471 102.227C220.533 102.077 220.624 101.941 220.739 101.826C220.854 101.712 220.991 101.621 221.141 101.559C221.291 101.498 221.452 101.466 221.615 101.467H280.281C280.443 101.466 280.604 101.498 280.754 101.559C280.904 101.621 281.041 101.712 281.156 101.826C281.271 101.941 281.362 102.077 281.424 102.227C281.487 102.377 281.519 102.538 281.519 102.7C281.519 102.863 281.487 103.023 281.424 103.173C281.362 103.323 281.271 103.459 281.156 103.574C281.041 103.689 280.904 103.779 280.754 103.841C280.604 103.903 280.443 103.934 280.281 103.934Z" fill="#E6E6E6"/>
<path d="M119.776 115.547H90.172C90.0096 115.548 89.8487 115.516 89.6985 115.454C89.5483 115.393 89.4118 115.302 89.2968 115.187C89.1817 115.073 89.0905 114.937 89.0282 114.787C88.9659 114.637 88.9338 114.476 88.9338 114.313C88.9338 114.151 88.9659 113.99 89.0282 113.84C89.0905 113.69 89.1817 113.554 89.2968 113.44C89.4118 113.325 89.5483 113.234 89.6985 113.173C89.8487 113.111 90.0096 113.079 90.172 113.08H119.776C119.939 113.079 120.1 113.111 120.25 113.173C120.4 113.234 120.537 113.325 120.652 113.44C120.767 113.554 120.858 113.69 120.92 113.84C120.983 113.99 121.015 114.151 121.015 114.313C121.015 114.476 120.983 114.637 120.92 114.787C120.858 114.937 120.767 115.073 120.652 115.187C120.537 115.302 120.4 115.393 120.25 115.454C120.1 115.516 119.939 115.548 119.776 115.547Z" fill="#3B55E6"/>
<path d="M119.776 135.415H90.172C90.0096 135.416 89.8487 135.384 89.6985 135.323C89.5483 135.261 89.4118 135.17 89.2968 135.056C89.1817 134.941 89.0905 134.805 89.0282 134.655C88.9659 134.505 88.9338 134.344 88.9338 134.182C88.9338 134.019 88.9659 133.859 89.0282 133.709C89.0905 133.559 89.1817 133.423 89.2968 133.308C89.4118 133.193 89.5483 133.103 89.6985 133.041C89.8487 132.979 90.0096 132.948 90.172 132.948H119.776C119.939 132.948 120.1 132.979 120.25 133.041C120.4 133.103 120.537 133.193 120.652 133.308C120.767 133.423 120.858 133.559 120.92 133.709C120.983 133.859 121.015 134.019 121.015 134.182C121.015 134.344 120.983 134.505 120.92 134.655C120.858 134.805 120.767 134.941 120.652 135.056C120.537 135.17 120.4 135.261 120.25 135.323C120.1 135.384 119.939 135.416 119.776 135.415Z" fill="#E6E6E6"/>
<path d="M148.838 125.481H90.172C90.0096 125.482 89.8487 125.45 89.6985 125.389C89.5483 125.327 89.4118 125.236 89.2968 125.121C89.1817 125.007 89.0905 124.871 89.0282 124.721C88.9659 124.571 88.9338 124.41 88.9338 124.248C88.9338 124.085 88.9659 123.924 89.0282 123.774C89.0905 123.624 89.1817 123.488 89.2968 123.374C89.4118 123.259 89.5483 123.168 89.6985 123.107C89.8487 123.045 90.0096 123.013 90.172 123.014H148.838C149 123.013 149.161 123.045 149.312 123.107C149.462 123.168 149.598 123.259 149.713 123.374C149.828 123.488 149.92 123.624 149.982 123.774C150.044 123.924 150.076 124.085 150.076 124.248C150.076 124.41 150.044 124.571 149.982 124.721C149.92 124.871 149.828 125.007 149.713 125.121C149.598 125.236 149.462 125.327 149.312 125.389C149.161 125.45 149 125.482 148.838 125.481Z" fill="#E6E6E6"/>
<path d="M182.565 65.7357L204.701 82.4359L211.001 87.1889C211.662 87.6877 212.304 86.5711 211.65 86.078L189.515 69.3779L183.215 64.6248C182.553 64.1261 181.912 65.2427 182.565 65.7357H182.565Z" fill="#3F3D56"/>
<path d="M201.401 88.2081C206.229 90.5245 211.477 91.8344 216.827 92.0582C216.926 92.0569 217.023 92.0332 217.111 91.9889C217.199 91.9445 217.276 91.8807 217.336 91.8022C217.396 91.7237 217.437 91.6327 217.456 91.5359C217.475 91.4392 217.472 91.3393 217.447 91.2439L214.019 77.4844C213.819 76.6814 212.578 77.0216 212.779 77.8264L216.207 91.5859L216.827 90.7716C211.704 90.5597 206.677 89.3097 202.051 87.0971C201.307 86.7409 200.654 87.8499 201.401 88.208V88.2081Z" fill="#3F3D56"/>
<path d="M150.839 77.3502L134.934 100.098L130.451 106.51C129.975 107.19 131.09 107.833 131.561 107.159L147.467 84.4111L151.95 77.9996C152.426 77.3196 151.311 76.6759 150.839 77.3502Z" fill="#3F3D56"/>
<path d="M129.048 96.9926C126.913 101.885 125.803 107.163 125.785 112.501C125.787 112.599 125.81 112.696 125.855 112.784C125.899 112.873 125.963 112.949 126.041 113.009C126.12 113.069 126.211 113.11 126.308 113.129C126.404 113.149 126.504 113.146 126.6 113.121L140.263 109.163C140.422 109.113 140.556 109.003 140.636 108.857C140.716 108.71 140.735 108.539 140.691 108.378C140.647 108.217 140.542 108.079 140.398 107.994C140.254 107.91 140.083 107.884 139.921 107.922L126.258 111.88L127.072 112.501C127.078 107.389 128.129 102.333 130.159 97.6419C130.486 96.8902 129.378 96.2343 129.048 96.9925V96.9926Z" fill="#3F3D56"/>
</g>
<defs>
<filter id="filter0_ddddd_104_13" x="0" y="0" width="316" height="268.982" filterUnits="userSpaceOnUse" color-interpolation-filters="sRGB">
<feFlood flood-opacity="0" result="BackgroundImageFix"/>
<feColorMatrix in="SourceAlpha" type="matrix" values="0 0 0 0 0 0 0 0 0 0 0 0 0 0 0 0 0 0 127 0" result="hardAlpha"/>
<feOffset/>
<feColorMatrix type="matrix" values="0 0 0 0 0 0 0 0 0 0 0 0 0 0 0 0 0 0 0.1 0"/>
<feBlend mode="normal" in2="BackgroundImageFix" result="effect1_dropShadow_104_13"/>
<feColorMatrix in="SourceAlpha" type="matrix" values="0 0 0 0 0 0 0 0 0 0 0 0 0 0 0 0 0 0 127 0" result="hardAlpha"/>
<feOffset dy="2"/>
<feGaussianBlur stdDeviation="2"/>
<feColorMatrix type="matrix" values="0 0 0 0 0 0 0 0 0 0 0 0 0 0 0 0 0 0 0.1 0"/>
<feBlend mode="normal" in2="effect1_dropShadow_104_13" result="effect2_dropShadow_104_13"/>
<feColorMatrix in="SourceAlpha" type="matrix" values="0 0 0 0 0 0 0 0 0 0 0 0 0 0 0 0 0 0 127 0" result="hardAlpha"/>
<feOffset dx="2" dy="8"/>
<feGaussianBlur stdDeviation="4"/>
<feColorMatrix type="matrix" values="0 0 0 0 0 0 0 0 0 0 0 0 0 0 0 0 0 0 0.09 0"/>
<feBlend mode="normal" in2="effect2_dropShadow_104_13" result="effect3_dropShadow_104_13"/>
<feColorMatrix in="SourceAlpha" type="matrix" values="0 0 0 0 0 0 0 0 0 0 0 0 0 0 0 0 0 0 127 0" result="hardAlpha"/>
<feOffset dx="4" dy="18"/>
<feGaussianBlur stdDeviation="5.5"/>
<feColorMatrix type="matrix" values="0 0 0 0 0 0 0 0 0 0 0 0 0 0 0 0 0 0 0.05 0"/>
<feBlend mode="normal" in2="effect3_dropShadow_104_13" result="effect4_dropShadow_104_13"/>
<feColorMatrix in="SourceAlpha" type="matrix" values="0 0 0 0 0 0 0 0 0 0 0 0 0 0 0 0 0 0 127 0" result="hardAlpha"/>
<feOffset dx="8" dy="32"/>
<feGaussianBlur stdDeviation="6.5"/>
<feColorMatrix type="matrix" values="0 0 0 0 0 0 0 0 0 0 0 0 0 0 0 0 0 0 0.01 0"/>
<feBlend mode="normal" in2="effect4_dropShadow_104_13" result="effect5_dropShadow_104_13"/>
<feBlend mode="normal" in="SourceGraphic" in2="effect5_dropShadow_104_13" result="shape"/>
</filter>
<clipPath id="clip0_104_13">
<rect width="288" height="221.982" fill="white" transform="translate(7 2)"/>
</clipPath>
</defs>
</svg>
